<svg width="78" height="78" viewBox="0 0 78 78" fill="none" xmlns="http://www.w3.org/2000/svg">
<path fill-rule="evenodd" clip-rule="evenodd" d="M3.25 24.375C3.25 17.1953 9.0703 11.375 16.25 11.375H45.5C52.6797 11.375 58.5 17.1953 58.5 24.375V37.9659C58.5 45.1456 52.6797 50.9659 45.5 50.9659L34.8472 50.9659L27.6831 57.5309C23.5137 61.3515 16.7917 58.3938 16.7917 52.7386V50.9659H16.25C9.0703 50.9659 3.25 45.1456 3.25 37.9659V24.375ZM16.25 17.875C12.6601 17.875 9.75 20.7851 9.75 24.375V37.9659C9.75 41.5558 12.6601 44.4659 16.25 44.4659H16.7917C20.3815 44.4659 23.2917 47.3761 23.2917 50.9659L23.2917 52.7386L30.4558 46.1737C31.6545 45.0752 33.2213 44.4659 34.8472 44.4659H45.5C49.0899 44.4659 52 41.5558 52 37.9659V24.375C52 20.7851 49.0898 17.875 45.5 17.875H16.25ZM59.3125 24.375C59.3125 22.5801 60.7676 21.125 62.5625 21.125C69.2935 21.125 74.75 26.5815 74.75 33.3125V47.7159C74.75 54.8956 68.9297 60.7159 61.75 60.7159L61.2083 60.7159V62.4886C61.2083 68.1438 54.4863 71.1015 50.3169 67.2809L43.1528 60.7159H33.5833C31.7884 60.7159 30.3333 59.2608 30.3333 57.4659C30.3333 55.671 31.7884 54.2159 33.5833 54.2159H43.1528C44.7787 54.2159 46.3455 54.8252 47.5442 55.9237L54.7083 62.4886V60.7159C54.7083 57.126 57.6185 54.2159 61.2083 54.2159H61.75C65.3398 54.2159 68.25 51.3058 68.25 47.7159V33.3125C68.25 30.1714 65.7036 27.625 62.5625 27.625C60.7676 27.625 59.3125 26.1699 59.3125 24.375Z" fill="#1F3F31"/>
</svg>
