<svg width="78" height="78" viewBox="0 0 78 78" fill="none" xmlns="http://www.w3.org/2000/svg">
<path fill-rule="evenodd" clip-rule="evenodd" d="M6.5 26C6.5 18.8203 12.3203 13 19.5 13H58.5C65.6797 13 71.5 18.8203 71.5 26V45.5C71.5 52.6797 65.6797 58.5 58.5 58.5H43.4971L33.5983 67.409C29.4154 71.1736 22.75 68.2051 22.75 62.5776V58.5H19.5C12.3203 58.5 6.5 52.6797 6.5 45.5V26ZM19.5 19.5C15.9101 19.5 13 22.4101 13 26V45.5C13 49.0898 15.9101 52 19.5 52H22.75C26.3399 52 29.25 54.9101 29.25 58.5V62.5776L39.1489 53.6686C40.3424 52.5944 41.8914 52 43.4971 52H58.5C62.0899 52 65 49.0898 65 45.5V26C65 22.4101 62.0898 19.5 58.5 19.5H19.5Z" fill="#1F3F31"/>
<path fill-rule="evenodd" clip-rule="evenodd" d="M28.8731 28.9603C31.6956 27.0002 35.3446 26 39 26C42.6554 26 46.3044 27.0002 49.1269 28.9603C51.7436 30.7775 54.1443 33.6381 55.0707 36.3105C55.3098 37 55.3098 37.75 55.0707 38.4395C54.1443 41.1119 51.7436 43.9725 49.1269 45.7897C46.3044 47.7498 42.6554 48.75 39 48.75C35.3446 48.75 31.6956 47.7498 28.8731 45.7897C26.2564 43.9725 23.8557 41.1119 22.9293 38.4395C22.6902 37.75 22.6902 37 22.9293 36.3105C23.8557 33.6381 26.2564 30.7775 28.8731 28.9603ZM39 32.5C36.4494 32.5 34.1465 33.2118 32.5806 34.2992C31.31 35.1816 30.2486 36.3738 29.6122 37.375C30.2486 38.3762 31.31 39.5684 32.5806 40.4508C34.1465 41.5382 36.4494 42.25 39 42.25C41.5506 42.25 43.8535 41.5382 45.4194 40.4508C46.69 39.5684 47.7514 38.3762 48.3878 37.375C47.7514 36.3738 46.69 35.1816 45.4194 34.2992C43.8535 33.2118 41.5506 32.5 39 32.5Z" fill="#1F3F31"/>
<path fill-rule="evenodd" clip-rule="evenodd" d="M39 32.5C41.6924 32.5 43.875 34.6718 43.875 37.3507V37.3993C43.875 40.0782 41.6924 42.25 39 42.25C36.3076 42.25 34.125 40.0782 34.125 37.3993V37.3507C34.125 34.6718 36.3076 32.5 39 32.5Z" fill="#1F3F31"/>
</svg>
