<svg width="78" height="78" viewBox="0 0 78 78" fill="none" xmlns="http://www.w3.org/2000/svg">
<path fill-rule="evenodd" clip-rule="evenodd" d="M45.4159 8.00249C49.6301 4.65041 55.7638 5.34927 59.1159 9.56345L63.9447 15.6341C67.2968 19.8483 66.5979 25.982 62.3837 29.3341L56.6412 33.9019L35.8256 50.4621C32.951 52.7464 29.3861 53.991 25.7144 53.991L14.2217 53.991C13.2528 53.991 12.3344 53.5587 11.717 52.812C11.0996 52.0653 10.8475 51.0821 11.0296 50.1304L13.2319 38.6179C13.962 34.8013 16.0356 31.3727 19.0766 28.9537L39.4842 12.7208C39.4869 12.7186 39.4896 12.7165 39.4923 12.7144L45.4159 8.00249ZM41.0194 19.8052L23.123 34.0407C21.2983 35.492 20.0542 37.5492 19.6161 39.8392L18.1524 47.491L25.7144 47.491C27.9174 47.491 30.0555 46.745 31.7803 45.3744L50.0221 30.8617L41.0194 19.8052ZM55.1092 26.8149L58.3374 24.2471C59.7421 23.1298 59.9751 21.0852 58.8577 19.6805L54.0289 13.6098C52.9116 12.2051 50.867 11.9721 49.4623 13.0895L46.1067 15.7586L55.1092 26.8149Z" fill="#1F3F31"/>
<path fill-rule="evenodd" clip-rule="evenodd" d="M6.2959 65C6.2959 63.2051 7.75097 61.75 9.5459 61.75H68.0459C69.8408 61.75 71.2959 63.2051 71.2959 65C71.2959 66.7949 69.8408 68.25 68.0459 68.25H9.5459C7.75097 68.25 6.2959 66.7949 6.2959 65Z" fill="#1F3F31"/>
</svg>
