<svg width="78" height="78" viewBox="0 0 78 78" fill="none" xmlns="http://www.w3.org/2000/svg">
<path fill-rule="evenodd" clip-rule="evenodd" d="M3.25 22.75C3.25 11.9804 11.9804 3.25 22.75 3.25H55.25C66.0196 3.25 74.75 11.9804 74.75 22.75V55.25C74.75 66.0196 66.0196 74.75 55.25 74.75H22.75C11.9804 74.75 3.25 66.0196 3.25 55.25V22.75ZM22.75 9.75C15.5703 9.75 9.75 15.5703 9.75 22.75V55.25C9.75 62.4297 15.5703 68.25 22.75 68.25H55.25C62.4297 68.25 68.25 62.4297 68.25 55.25V22.75C68.25 15.5703 62.4297 9.75 55.25 9.75H22.75Z" fill="#1F3F31"/>
<path fill-rule="evenodd" clip-rule="evenodd" d="M39 29.25C33.6152 29.25 29.25 33.6152 29.25 39C29.25 44.3848 33.6152 48.75 39 48.75C44.3848 48.75 48.75 44.3848 48.75 39C48.75 33.6152 44.3848 29.25 39 29.25ZM22.75 39C22.75 30.0254 30.0254 22.75 39 22.75C47.9746 22.75 55.25 30.0254 55.25 39C55.25 47.9746 47.9746 55.25 39 55.25C30.0254 55.25 22.75 47.9746 22.75 39Z" fill="#1F3F31"/>
<path fill-rule="evenodd" clip-rule="evenodd" d="M56.875 22.75C57.7725 22.75 58.5 22.0225 58.5 21.125C58.5 20.2275 57.7725 19.5 56.875 19.5C55.9775 19.5 55.25 20.2275 55.25 21.125C55.25 22.0225 55.9775 22.75 56.875 22.75ZM52 21.125C52 18.4326 54.1826 16.25 56.875 16.25C59.5674 16.25 61.75 18.4326 61.75 21.125C61.75 23.8174 59.5674 26 56.875 26C54.1826 26 52 23.8174 52 21.125Z" fill="#1F3F31"/>
</svg>
