<svg width="78" height="78" viewBox="0 0 78 78" fill="none" xmlns="http://www.w3.org/2000/svg">
<path fill-rule="evenodd" clip-rule="evenodd" d="M61.3633 20.7173C62.1596 18.2061 59.7942 15.8407 57.2831 16.6369L20.9247 28.1653C18.6018 28.9019 17.8858 31.8382 19.6089 33.5614L29.7257 43.6783L40.0987 33.3054C41.3679 32.0362 43.4257 32.0362 44.6949 33.3055C45.9641 34.5747 45.9641 36.6325 44.6949 37.9017L34.3218 48.2745L44.4386 58.3914C46.1617 60.1145 49.0981 59.3985 49.8347 57.0756L61.3633 20.7173ZM55.3184 10.4409C62.8518 8.05227 69.948 15.1485 67.5593 22.6819L56.0306 59.0403C53.8209 66.009 45.0118 68.157 39.8423 62.9875L15.0127 38.1576C9.84325 32.9881 11.9913 24.179 18.9601 21.9693L55.3184 10.4409Z" fill="#1F3F31"/>
</svg>
