<svg width="78" height="78" viewBox="0 0 78 78" fill="none" xmlns="http://www.w3.org/2000/svg">
<path fill-rule="evenodd" clip-rule="evenodd" d="M32.1778 5.38305C35.9684 1.67033 42.032 1.67033 45.8225 5.38304L49.9414 9.41726C50.5405 10.0041 51.3432 10.3366 52.1818 10.3453L57.9468 10.4051C63.2525 10.4602 67.5401 14.7478 67.5951 20.0534L67.655 25.8185C67.6637 26.657 67.9962 27.4597 68.583 28.0589L72.6172 32.1777C76.3299 35.9683 76.3299 42.0318 72.6172 45.8224L68.583 49.9413C67.9962 50.5404 67.6637 51.3431 67.655 52.1816L67.5951 57.9467C67.5401 63.2524 63.2525 67.5399 57.9468 67.595L52.1818 67.6548C51.3432 67.6635 50.5405 67.9961 49.9414 68.5828L45.8225 72.6171C42.032 76.3298 35.9684 76.3298 32.1778 72.6171L28.059 68.5828C27.4599 67.9961 26.6571 67.6635 25.8186 67.6548L20.0535 67.595C14.7479 67.5399 10.4603 63.2523 10.4052 57.9467L10.3454 52.1816C10.3367 51.3431 10.0042 50.5404 9.41738 49.9413L5.38317 45.8224C1.67046 42.0318 1.67045 35.9683 5.38317 32.1777L9.41738 28.0589C10.0042 27.4597 10.3367 26.657 10.3454 25.8185L10.4052 20.0534C10.4603 14.7477 14.7479 10.4602 20.0535 10.4051L25.8186 10.3453C26.6571 10.3366 27.4599 10.0041 28.059 9.41726L32.1778 5.38305ZM41.2743 10.0267C40.0108 8.78912 37.9896 8.78912 36.7261 10.0267L32.6072 14.0609C30.8099 15.8213 28.4017 16.8188 25.886 16.8449L20.121 16.9047C18.3524 16.9231 16.9232 18.3523 16.9049 20.1208L16.845 25.8859C16.8189 28.4016 15.8214 30.8098 14.061 32.6071L10.0268 36.7259C8.78924 37.9895 8.78924 40.0107 10.0268 41.2742L14.061 45.393C15.8214 47.1903 16.8189 49.5985 16.845 52.1142L16.9049 57.8793C16.9232 59.6478 18.3524 61.077 20.121 61.0954L25.886 61.1552C28.4017 61.1813 30.8099 62.1788 32.6072 63.9392L36.7261 67.9734C37.9896 69.211 40.0108 69.211 41.2743 67.9734L45.3931 63.9392C47.1904 62.1788 49.5986 61.1813 52.1143 61.1552L57.8794 61.0954C59.6479 61.077 61.0771 59.6478 61.0955 57.8793L61.1553 52.1142C61.1814 49.5985 62.1789 47.1903 63.9393 45.393L67.9735 41.2742C69.2111 40.0107 69.2111 37.9895 67.9735 36.7259L63.9393 32.6071C62.1789 30.8098 61.1814 28.4016 61.1553 25.8859L61.0955 20.1208C61.0771 18.3523 59.6479 16.9231 57.8794 16.9047L52.1143 16.8449C49.5986 16.8188 47.1904 15.8213 45.3931 14.0609L41.2743 10.0267Z" fill="#1F3F31"/>
<path fill-rule="evenodd" clip-rule="evenodd" d="M54.3493 28.6293C55.5896 29.9268 55.5432 31.9841 54.2457 33.2243L37.2457 49.4743C35.9545 50.7085 33.9094 50.6695 32.6663 49.3869L23.6663 40.1012C22.4171 38.8123 22.4492 36.7548 23.7381 35.5056C25.027 34.2564 27.0845 34.2885 28.3337 35.5774L35.0874 42.5455L49.7543 28.5257C51.0518 27.2854 53.1091 27.3318 54.3493 28.6293Z" fill="#1F3F31"/>
</svg>
