<svg width="78" height="78" viewBox="0 0 78 78" fill="none" xmlns="http://www.w3.org/2000/svg">
<path fill-rule="evenodd" clip-rule="evenodd" d="M3.25 26C3.25 18.8203 9.0703 13 16.25 13H61.75C68.9297 13 74.75 18.8203 74.75 26V52C74.75 59.1797 68.9297 65 61.75 65H16.25C9.0703 65 3.25 59.1797 3.25 52V26ZM16.25 19.5C12.6601 19.5 9.75 22.4101 9.75 26V52C9.75 55.5899 12.6601 58.5 16.25 58.5H61.75C65.3398 58.5 68.25 55.5899 68.25 52V26C68.25 22.4101 65.3399 19.5 61.75 19.5H16.25Z" fill="#1F3F31"/>
<path fill-rule="evenodd" clip-rule="evenodd" d="M28.2041 40.2519L7.59082 21.929L11.9092 17.0708L32.5225 35.3937C36.2166 38.6774 41.7834 38.6774 45.4776 35.3937L66.0908 17.0708L70.4092 21.929L49.7959 40.2519C43.639 45.7247 34.361 45.7247 28.2041 40.2519Z" fill="#1F3F31"/>
<path fill-rule="evenodd" clip-rule="evenodd" d="M21.7981 46.4519C23.0673 47.7211 23.0673 49.7789 21.7981 51.0481L12.0481 60.7981C10.7789 62.0673 8.72111 62.0673 7.4519 60.7981C6.1827 59.5289 6.1827 57.4711 7.4519 56.2019L17.2019 46.4519C18.4711 45.1827 20.5289 45.1827 21.7981 46.4519Z" fill="#1F3F31"/>
<path fill-rule="evenodd" clip-rule="evenodd" d="M56.2019 46.4519C54.9327 47.7211 54.9327 49.7789 56.2019 51.0481L65.9519 60.7981C67.2211 62.0673 69.2789 62.0673 70.5481 60.7981C71.8173 59.5289 71.8173 57.4711 70.5481 56.2019L60.7981 46.4519C59.5289 45.1827 57.4711 45.1827 56.2019 46.4519Z" fill="#1F3F31"/>
</svg>
