<svg width="78" height="78" viewBox="0 0 78 78" fill="none" xmlns="http://www.w3.org/2000/svg">
<path fill-rule="evenodd" clip-rule="evenodd" d="M37.5662 4.875C37.5662 3.08007 39.0212 1.625 40.8162 1.625H51.7132C53.5082 1.625 54.9632 3.08007 54.9632 4.875C54.9632 5.21901 55.1213 6.29289 55.7342 7.81915C56.3214 9.28166 57.2522 10.9697 58.6022 12.5665L56.1203 14.6648L58.6022 12.5665C61.1015 15.5228 64.6955 17.7895 69.875 17.7895C71.6699 17.7895 73.125 19.2445 73.125 21.0395V31.8158C73.125 33.6107 71.6699 35.0658 69.875 35.0658C64.1308 35.0658 59.1542 33.6822 54.9632 31.4881V51.5724C54.9632 65.3045 43.7164 76.375 29.9191 76.375C16.1219 76.375 4.875 65.3045 4.875 51.5724C4.875 37.8402 16.1219 26.7697 29.9191 26.7697C31.714 26.7697 33.1691 28.2248 33.1691 30.0197V40.7961C33.1691 42.591 31.714 44.0461 29.9191 44.0461C25.6615 44.0461 22.2721 47.4497 22.2721 51.5724C22.2721 55.695 25.6615 59.0987 29.9191 59.0987C34.1767 59.0987 37.5662 55.695 37.5662 51.5724V4.875ZM44.0662 8.125V51.5724C44.0662 59.3529 37.6981 65.5987 29.9191 65.5987C22.1401 65.5987 15.7721 59.3529 15.7721 51.5724C15.7721 44.9094 20.4422 39.3719 26.6691 37.9187V33.5494C17.9544 35.0679 11.375 42.5857 11.375 51.5724C11.375 61.6466 19.6432 69.875 29.9191 69.875C40.195 69.875 48.4632 61.6466 48.4632 51.5724V25.4657C48.4632 24.2111 49.1854 23.0685 50.3186 22.5301C51.4519 21.9917 52.7938 22.1537 53.7664 22.9463C57.1069 25.6687 61.3712 27.7597 66.625 28.3781V24.0627C60.8954 23.243 56.6243 20.2949 53.6384 16.7631C51.7924 14.5795 50.5196 12.2765 49.7023 10.2412C49.4141 9.52353 49.1716 8.81128 48.9796 8.125H44.0662Z" fill="#1F3F31"/>
<path fill-rule="evenodd" clip-rule="evenodd" d="M23.5625 51.1875C23.5625 47.5976 26.4726 44.6875 30.0625 44.6875C31.8574 44.6875 33.3125 46.1426 33.3125 47.9375C33.3125 49.7324 31.8574 51.1875 30.0625 51.1875C31.8574 51.1875 33.3125 52.6426 33.3125 54.4375C33.3125 56.2324 31.8574 57.6875 30.0625 57.6875C26.4726 57.6875 23.5625 54.7774 23.5625 51.1875Z" fill="#1F3F31"/>
</svg>
