<svg width="78" height="78" viewBox="0 0 78 78" fill="none" xmlns="http://www.w3.org/2000/svg">
<path fill-rule="evenodd" clip-rule="evenodd" d="M6.5 26C6.5 18.8203 12.3203 13 19.5 13H58.5C65.6797 13 71.5 18.8203 71.5 26V45.5C71.5 52.6797 65.6797 58.5 58.5 58.5H43.4971L33.5983 67.409C29.4154 71.1736 22.75 68.2051 22.75 62.5776V58.5H19.5C12.3203 58.5 6.5 52.6797 6.5 45.5V26ZM19.5 19.5C15.9101 19.5 13 22.4101 13 26V45.5C13 49.0898 15.9101 52 19.5 52H22.75C26.3399 52 29.25 54.9101 29.25 58.5V62.5776L39.1489 53.6686C40.3424 52.5944 41.8914 52 43.4971 52H58.5C62.0899 52 65 49.0898 65 45.5V26C65 22.4101 62.0898 19.5 58.5 19.5H19.5Z" fill="#1F3F31"/>
<path fill-rule="evenodd" clip-rule="evenodd" d="M37.375 29.25C34.6826 29.25 32.5 31.4326 32.5 34.125C32.5 36.8174 34.6826 39 37.375 39C40.0674 39 42.25 36.8174 42.25 34.125C42.25 31.4326 40.0674 29.25 37.375 29.25ZM26 34.125C26 27.8428 31.0928 22.75 37.375 22.75C43.6572 22.75 48.75 27.8428 48.75 34.125C48.75 36.084 48.2548 37.9273 47.3828 39.5366L51.0481 43.2019C52.3173 44.4711 52.3173 46.5289 51.0481 47.7981C49.7789 49.0673 47.7211 49.0673 46.4519 47.7981L42.7866 44.1328C41.1773 45.0048 39.334 45.5 37.375 45.5C31.0928 45.5 26 40.4072 26 34.125Z" fill="#1F3F31"/>
</svg>
