<svg width="78" height="78" viewBox="0 0 78 78" fill="none" xmlns="http://www.w3.org/2000/svg">
<path fill-rule="evenodd" clip-rule="evenodd" d="M30.1464 14.685C33.6312 7.13005 44.3687 7.13005 47.8535 14.685L50.5136 20.4521C50.987 21.4785 51.9597 22.1852 53.0821 22.3182L59.3889 23.066C67.651 24.0456 70.9691 34.2576 64.8607 39.9065L60.1979 44.2185C59.3681 44.9859 58.9965 46.1294 59.2168 47.238L60.4546 53.4672C62.076 61.6276 53.3892 67.939 46.1292 63.8752L40.5874 60.7731C39.6011 60.221 38.3988 60.221 37.4125 60.7731L31.8707 63.8752C24.6107 67.939 15.9238 61.6276 17.5453 53.4672L18.783 47.238C19.0033 46.1294 18.6318 44.9859 17.8019 44.2185L13.1392 39.9065C7.03078 34.2576 10.3489 24.0456 18.611 23.066L24.9178 22.3182C26.0402 22.1852 27.0129 21.4785 27.4863 20.4521L30.1464 14.685ZM41.9511 17.4075C40.7895 14.8892 37.2103 14.8892 36.0487 17.4075L33.3887 23.1746C31.9684 26.2537 29.0504 28.3738 25.6831 28.773L19.3763 29.5208C16.6222 29.8473 15.5162 33.2513 17.5523 35.1343L22.2151 39.4463C24.7046 41.7485 25.8192 45.1789 25.1584 48.5048L23.9207 54.7339C23.3802 57.4541 26.2758 59.5579 28.6958 58.2033L34.2376 55.1012C37.1965 53.4449 40.8034 53.4449 43.7622 55.1012L49.3041 58.2033C51.7241 59.5579 54.6197 57.4541 54.0792 54.7339L52.8415 48.5048C52.1806 45.1789 53.2952 41.7485 55.7847 39.4463L60.4475 35.1343C62.4836 33.2513 61.3776 29.8473 58.6236 29.5208L52.3168 28.773C48.9495 28.3738 46.0315 26.2537 44.6112 23.1746L41.9511 17.4075Z" fill="#1F3F31"/>
</svg>
