<svg width="78" height="78" viewBox="0 0 78 78" fill="none" xmlns="http://www.w3.org/2000/svg">
<path fill-rule="evenodd" clip-rule="evenodd" d="M6.5 26C6.5 18.8203 12.3203 13 19.5 13H58.5C65.6797 13 71.5 18.8203 71.5 26V45.5C71.5 52.6797 65.6797 58.5 58.5 58.5H43.4971L33.5983 67.409C29.4154 71.1736 22.75 68.2051 22.75 62.5776V58.5H19.5C12.3203 58.5 6.5 52.6797 6.5 45.5V26ZM19.5 19.5C15.9101 19.5 13 22.4101 13 26V45.5C13 49.0898 15.9101 52 19.5 52H22.75C26.3399 52 29.25 54.9101 29.25 58.5V62.5776L39.1489 53.6686C40.3424 52.5944 41.8914 52 43.4971 52H58.5C62.0899 52 65 49.0898 65 45.5V26C65 22.4101 62.0898 19.5 58.5 19.5H19.5Z" fill="#1F3F31"/>
</svg>
