<svg width="78" height="78" viewBox="0 0 78 78" fill="none" xmlns="http://www.w3.org/2000/svg">
<path fill-rule="evenodd" clip-rule="evenodd" d="M32.5 39C32.5 42.5899 35.4101 45.5 39 45.5C42.5899 45.5 45.5 42.5899 45.5 39C45.5 35.4101 42.5899 32.5 39 32.5C35.4101 32.5 32.5 35.4101 32.5 39Z" fill="#1F3F31"/>
<path fill-rule="evenodd" clip-rule="evenodd" d="M39 19.5C28.2304 19.5 19.5 28.2304 19.5 39C19.5 49.7696 28.2304 58.5 39 58.5C49.7696 58.5 58.5 49.7696 58.5 39C58.5 28.2304 49.7696 19.5 39 19.5ZM13 39C13 24.6406 24.6406 13 39 13C53.3594 13 65 24.6406 65 39C65 53.3594 53.3594 65 39 65C24.6406 65 13 53.3594 13 39Z" fill="#1F3F31"/>
<path fill-rule="evenodd" clip-rule="evenodd" d="M39 6.5C40.7949 6.5 42.25 7.95507 42.25 9.75V22.75C42.25 24.5449 40.7949 26 39 26C37.2051 26 35.75 24.5449 35.75 22.75V9.75C35.75 7.95507 37.2051 6.5 39 6.5Z" fill="#1F3F31"/>
<path fill-rule="evenodd" clip-rule="evenodd" d="M39 52C40.7949 52 42.25 53.4551 42.25 55.25L42.25 68.25C42.25 70.0449 40.7949 71.5 39 71.5C37.2051 71.5 35.75 70.0449 35.75 68.25L35.75 55.25C35.75 53.4551 37.2051 52 39 52Z" fill="#1F3F31"/>
<path fill-rule="evenodd" clip-rule="evenodd" d="M26 39C26 40.7949 24.5449 42.25 22.75 42.25H9.75C7.95507 42.25 6.5 40.7949 6.5 39C6.5 37.2051 7.95507 35.75 9.75 35.75H22.75C24.5449 35.75 26 37.2051 26 39Z" fill="#1F3F31"/>
<path fill-rule="evenodd" clip-rule="evenodd" d="M71.5 39C71.5 40.7949 70.0449 42.25 68.25 42.25L55.25 42.25C53.4551 42.25 52 40.7949 52 39C52 37.2051 53.4551 35.75 55.25 35.75L68.25 35.75C70.0449 35.75 71.5 37.2051 71.5 39Z" fill="#1F3F31"/>
</svg>
