<svg width="78" height="78" viewBox="0 0 78 78" fill="none" xmlns="http://www.w3.org/2000/svg">
<path fill-rule="evenodd" clip-rule="evenodd" d="M74.75 65.8125C74.75 69.4024 71.8399 72.3125 68.25 72.3125L60.125 72.3125C56.5352 72.3125 53.625 69.4023 53.625 65.8125L53.625 57.6875C53.625 54.0976 56.5352 51.1875 60.125 51.1875L68.25 51.1875C71.8399 51.1875 74.75 54.0977 74.75 57.6875L74.75 65.8125ZM60.125 65.8125L68.25 65.8125L68.25 57.6875L60.125 57.6875L60.125 65.8125Z" fill="#1F3F31"/>
<path fill-rule="evenodd" clip-rule="evenodd" d="M74.75 42.25C74.75 45.8399 71.8399 48.75 68.25 48.75L60.125 48.75C56.5352 48.75 53.625 45.8398 53.625 42.25L53.625 34.125C53.625 30.5351 56.5352 27.625 60.125 27.625L68.25 27.625C71.8399 27.625 74.75 30.5351 74.75 34.125L74.75 42.25ZM60.125 42.25L68.25 42.25L68.25 34.125L60.125 34.125L60.125 42.25Z" fill="#1F3F31"/>
<path fill-rule="evenodd" clip-rule="evenodd" d="M74.75 19.5C74.75 23.0899 71.8399 26 68.25 26L60.125 26C56.5352 26 53.625 23.0898 53.625 19.5L53.625 11.375C53.625 7.78515 56.5352 4.875 60.125 4.875L68.25 4.875C71.8399 4.875 74.75 7.78515 74.75 11.375L74.75 19.5ZM60.125 19.5L68.25 19.5L68.25 11.375L60.125 11.375L60.125 19.5Z" fill="#1F3F31"/>
<path fill-rule="evenodd" clip-rule="evenodd" d="M50.375 65.8125C50.375 69.4024 47.4649 72.3125 43.875 72.3125L35.75 72.3125C32.1602 72.3125 29.25 69.4023 29.25 65.8125L29.25 57.6875C29.25 54.0976 32.1602 51.1875 35.75 51.1875L43.875 51.1875C47.4649 51.1875 50.375 54.0977 50.375 57.6875L50.375 65.8125ZM35.75 65.8125L43.875 65.8125L43.875 57.6875L35.75 57.6875L35.75 65.8125Z" fill="#1F3F31"/>
<path fill-rule="evenodd" clip-rule="evenodd" d="M50.375 42.25C50.375 45.8399 47.4649 48.75 43.875 48.75L35.75 48.75C32.1602 48.75 29.25 45.8398 29.25 42.25L29.25 34.125C29.25 30.5351 32.1602 27.625 35.75 27.625L43.875 27.625C47.4649 27.625 50.375 30.5351 50.375 34.125L50.375 42.25ZM35.75 42.25L43.875 42.25L43.875 34.125L35.75 34.125L35.75 42.25Z" fill="#1F3F31"/>
<path fill-rule="evenodd" clip-rule="evenodd" d="M50.375 19.5C50.375 23.0899 47.4649 26 43.875 26L35.75 26C32.1602 26 29.25 23.0898 29.25 19.5L29.25 11.375C29.25 7.78515 32.1602 4.875 35.75 4.875L43.875 4.875C47.4649 4.875 50.375 7.78515 50.375 11.375L50.375 19.5ZM35.75 19.5L43.875 19.5L43.875 11.375L35.75 11.375L35.75 19.5Z" fill="#1F3F31"/>
<path fill-rule="evenodd" clip-rule="evenodd" d="M26 65.8125C26 69.4024 23.0899 72.3125 19.5 72.3125L11.375 72.3125C7.78515 72.3125 4.875 69.4023 4.875 65.8125L4.875 57.6875C4.875 54.0976 7.78515 51.1875 11.375 51.1875L19.5 51.1875C23.0899 51.1875 26 54.0977 26 57.6875L26 65.8125ZM11.375 65.8125L19.5 65.8125L19.5 57.6875L11.375 57.6875L11.375 65.8125Z" fill="#1F3F31"/>
<path fill-rule="evenodd" clip-rule="evenodd" d="M26 42.25C26 45.8399 23.0899 48.75 19.5 48.75L11.375 48.75C7.78515 48.75 4.875 45.8398 4.875 42.25L4.875 34.125C4.875 30.5351 7.78515 27.625 11.375 27.625L19.5 27.625C23.0899 27.625 26 30.5351 26 34.125L26 42.25ZM11.375 42.25L19.5 42.25L19.5 34.125L11.375 34.125L11.375 42.25Z" fill="#1F3F31"/>
<path fill-rule="evenodd" clip-rule="evenodd" d="M26 19.5C26 23.0899 23.0899 26 19.5 26L11.375 26C7.78515 26 4.875 23.0898 4.875 19.5L4.875 11.375C4.875 7.78515 7.78515 4.875 11.375 4.875L19.5 4.875C23.0899 4.875 26 7.78515 26 11.375L26 19.5ZM11.375 19.5L19.5 19.5L19.5 11.375L11.375 11.375L11.375 19.5Z" fill="#1F3F31"/>
</svg>
