<svg width="78" height="78" viewBox="0 0 78 78" fill="none" xmlns="http://www.w3.org/2000/svg">
<path fill-rule="evenodd" clip-rule="evenodd" d="M37.1976 7.04584C38.2892 6.31805 39.7114 6.31805 40.8031 7.04584L70.0531 26.5458C71.5466 27.5415 71.9502 29.5593 70.9545 31.0528C69.9589 32.5462 67.941 32.9498 66.4476 31.9542L39.0003 13.656L11.5531 31.9542C10.0597 32.9498 8.04183 32.5462 7.04618 31.0528C6.05054 29.5593 6.4541 27.5415 7.94757 26.5458L37.1976 7.04584Z" fill="#1F3F31"/>
<path fill-rule="evenodd" clip-rule="evenodd" d="M16.25 22.75C18.0449 22.75 19.5 24.2051 19.5 26V55.25C19.5 60.6348 23.8652 65 29.25 65H35.75V45.5C35.75 43.7051 37.2051 42.25 39 42.25C40.7949 42.25 42.25 43.7051 42.25 45.5V65H48.75C54.1348 65 58.5 60.6348 58.5 55.25V26C58.5 24.2051 59.9551 22.75 61.75 22.75C63.5449 22.75 65 24.2051 65 26V55.25C65 64.2246 57.7246 71.5 48.75 71.5H29.25C20.2754 71.5 13 64.2246 13 55.25V26C13 24.2051 14.4551 22.75 16.25 22.75Z" fill="#1F3F31"/>
</svg>
