<svg width="78" height="78" viewBox="0 0 78 78" fill="none" xmlns="http://www.w3.org/2000/svg">
<path fill-rule="evenodd" clip-rule="evenodd" d="M26 16.25C22.4102 16.25 19.5 19.1602 19.5 22.75V61.75C19.5 65.3399 22.4101 68.25 26 68.25H52C55.5899 68.25 58.5 65.3399 58.5 61.75V22.75C58.5 19.1601 55.5899 16.25 52 16.25H48.75C46.9551 16.25 45.5 14.7949 45.5 13C45.5 11.2051 46.9551 9.75 48.75 9.75H52C59.1797 9.75 65 15.5703 65 22.75V61.75C65 68.9297 59.1797 74.75 52 74.75H26C18.8203 74.75 13 68.9297 13 61.75V22.75C13 15.5703 18.8203 9.75 26 9.75H29.25C31.0449 9.75 32.5 11.2051 32.5 13C32.5 14.7949 31.0449 16.25 29.25 16.25H26Z" fill="#1F3F31"/>
<path fill-rule="evenodd" clip-rule="evenodd" d="M26 13.8125C26 8.87646 30.0015 4.875 34.9375 4.875H43.0625C47.9985 4.875 52 8.87645 52 13.8125C52 18.7485 47.9985 22.75 43.0625 22.75H34.9375C30.0015 22.75 26 18.7485 26 13.8125ZM34.9375 11.375C33.5913 11.375 32.5 12.4663 32.5 13.8125C32.5 15.1587 33.5913 16.25 34.9375 16.25H43.0625C44.4087 16.25 45.5 15.1587 45.5 13.8125C45.5 12.4663 44.4087 11.375 43.0625 11.375H34.9375Z" fill="#1F3F31"/>
<path fill-rule="evenodd" clip-rule="evenodd" d="M32.5 35.75C32.5 33.9551 33.9551 32.5 35.75 32.5H52C53.7949 32.5 55.25 33.9551 55.25 35.75C55.25 37.5449 53.7949 39 52 39H35.75C33.9551 39 32.5 37.5449 32.5 35.75Z" fill="#1F3F31"/>
<path fill-rule="evenodd" clip-rule="evenodd" d="M32.5 48.75C32.5 46.9551 33.9551 45.5 35.75 45.5H52C53.7949 45.5 55.25 46.9551 55.25 48.75C55.25 50.5449 53.7949 52 52 52H35.75C33.9551 52 32.5 50.5449 32.5 48.75Z" fill="#1F3F31"/>
<path fill-rule="evenodd" clip-rule="evenodd" d="M26 32.5C24.2051 32.5 22.75 33.9551 22.75 35.75L22.75 35.7825C22.75 37.5774 24.2051 39.0325 26 39.0325C27.7949 39.0325 29.25 37.5774 29.25 35.7825L29.25 35.75C29.25 33.9551 27.7949 32.5 26 32.5Z" fill="#1F3F31"/>
<path fill-rule="evenodd" clip-rule="evenodd" d="M26 45.5C24.2051 45.5 22.75 46.9551 22.75 48.75L22.75 48.7825C22.75 50.5774 24.2051 52.0325 26 52.0325C27.7949 52.0325 29.25 50.5774 29.25 48.7825L29.25 48.75C29.25 46.9551 27.7949 45.5 26 45.5Z" fill="#1F3F31"/>
</svg>
