<svg width="78" height="78" viewBox="0 0 78 78" fill="none" xmlns="http://www.w3.org/2000/svg">
<path fill-rule="evenodd" clip-rule="evenodd" d="M9.75 26C9.75 17.0254 17.0254 9.75 26 9.75H52C60.9746 9.75 68.25 17.0254 68.25 26V52C68.25 60.9746 60.9746 68.25 52 68.25H26C17.0254 68.25 9.75 60.9746 9.75 52V26ZM26 16.25C20.6152 16.25 16.25 20.6152 16.25 26V52C16.25 57.3848 20.6152 61.75 26 61.75H52C57.3848 61.75 61.75 57.3848 61.75 52V26C61.75 20.6152 57.3848 16.25 52 16.25H26Z" fill="#1F3F31"/>
<path fill-rule="evenodd" clip-rule="evenodd" d="M65 32.5H13V26H65V32.5Z" fill="#1F3F31"/>
<path fill-rule="evenodd" clip-rule="evenodd" d="M26 3.25C27.7949 3.25 29.25 4.70507 29.25 6.5V13C29.25 14.7949 27.7949 16.25 26 16.25C24.2051 16.25 22.75 14.7949 22.75 13V6.5C22.75 4.70507 24.2051 3.25 26 3.25Z" fill="#1F3F31"/>
<path fill-rule="evenodd" clip-rule="evenodd" d="M52 3.25C53.7949 3.25 55.25 4.70507 55.25 6.5V13C55.25 14.7949 53.7949 16.25 52 16.25C50.2051 16.25 48.75 14.7949 48.75 13V6.5C48.75 4.70507 50.2051 3.25 52 3.25Z" fill="#1F3F31"/>
</svg>
