<svg width="78" height="78" viewBox="0 0 78 78" fill="none" xmlns="http://www.w3.org/2000/svg">
<path fill-rule="evenodd" clip-rule="evenodd" d="M43.3499 22.4141C47.3837 23.6329 50.6336 26.6316 52.1457 29.7742C52.924 31.3917 52.2437 33.3337 50.6262 34.112C49.0088 34.8902 47.0667 34.2099 46.2885 32.5925C45.5568 31.0719 43.7384 29.3218 41.4699 28.6363C39.4325 28.0207 36.8673 28.2054 34.1204 30.7744C30.4229 34.2325 29.1784 38.7857 29.5045 42.3851C29.6685 44.1961 30.2127 45.5798 30.8399 46.4227C31.4356 47.2232 31.9787 47.4106 32.4148 47.4106C34.987 47.4106 37.8907 46.3122 40.3592 45.0056C41.5506 44.375 42.5552 43.7421 43.2585 43.2688C43.6087 43.0331 43.8805 42.8396 44.0593 42.7091C44.1486 42.644 44.2144 42.5948 44.2549 42.5642L44.2964 42.5327C44.2967 42.5324 44.299 42.5307 44.2994 42.5304M44.2994 42.5304C45.7156 41.4287 47.7569 41.6831 48.8593 43.099C49.962 44.5153 49.7078 46.5573 48.2915 47.66L46.3894 45.2169C48.2915 47.66 48.2921 47.6595 48.2915 47.66L48.2856 47.6646L48.2771 47.6712L48.2521 47.6905L48.1711 47.752C48.1036 47.8029 48.0093 47.8733 47.89 47.9603C47.6517 48.1342 47.3124 48.3754 46.8874 48.6615C46.0401 49.2316 44.837 49.9899 43.4 50.7505C40.6116 52.2264 36.5753 53.9106 32.4149 53.9106C29.4853 53.9106 27.1594 52.3647 25.6253 50.3031C24.1226 48.2838 23.276 45.6763 23.031 42.9716C22.5389 37.5395 24.4029 30.9629 29.6805 26.0271C34.1136 21.8811 39.0848 21.1255 43.3499 22.4141" fill="#1F3F31"/>
<path fill-rule="evenodd" clip-rule="evenodd" d="M39.2445 13C24.7598 13 13.0176 24.7422 13.0176 39.2269C13.0176 53.7117 24.7598 65.4538 39.2445 65.4538C41.0394 65.4538 42.4945 66.9089 42.4945 68.7038C42.4945 70.4988 41.0394 71.9538 39.2445 71.9538C21.1699 71.9538 6.51758 57.3015 6.51758 39.2269C6.51758 21.1523 21.1699 6.5 39.2445 6.5C51.3218 6.5 61.8018 12.8445 67.4744 22.6318C74.7595 34.773 71.5898 46.8492 65.1233 53.3158C61.8717 56.5674 58.1446 58.6892 54.3507 58.6892C50.2765 58.6892 47.0755 56.262 45.1801 52.4711C43.6295 49.37 42.8904 44.2477 43.6134 38.8678C44.3508 33.3801 46.6591 27.2164 51.6868 22.1901C52.9562 20.921 55.0139 20.9213 56.283 22.1907C57.552 23.46 57.5517 25.5178 56.2824 26.7869C52.4646 30.6036 50.645 35.3463 50.0555 39.7335C49.4515 44.2283 50.1863 47.9491 50.9939 49.5642C52.0461 51.6687 53.2666 52.1892 54.3507 52.1892C55.7151 52.1892 57.8833 51.3634 60.5271 48.7196C64.9322 44.3145 67.6225 35.4943 61.8895 25.9573L61.8754 25.9339L61.8617 25.9102C57.3378 18.0896 48.9787 13 39.2445 13Z" fill="#1F3F31"/>
</svg>
