<svg width="78" height="78" viewBox="0 0 78 78" fill="none" xmlns="http://www.w3.org/2000/svg">
<path fill-rule="evenodd" clip-rule="evenodd" d="M39 13C24.6406 13 13 24.6406 13 39C13 53.3594 24.6406 65 39 65C53.3594 65 65 53.3594 65 39C65 24.6406 53.3594 13 39 13ZM6.5 39C6.5 21.0507 21.0507 6.5 39 6.5C56.9493 6.5 71.5 21.0507 71.5 39C71.5 56.9493 56.9493 71.5 39 71.5C21.0507 71.5 6.5 56.9493 6.5 39Z" fill="#1F3F31"/>
<path fill-rule="evenodd" clip-rule="evenodd" d="M39 32.5C35.4101 32.5 32.5 35.4101 32.5 39C32.5 42.5899 35.4101 45.5 39 45.5C42.5899 45.5 45.5 42.5899 45.5 39C45.5 35.4101 42.5899 32.5 39 32.5ZM26 39C26 31.8203 31.8203 26 39 26C46.1797 26 52 31.8203 52 39C52 46.1797 46.1797 52 39 52C31.8203 52 26 46.1797 26 39Z" fill="#1F3F31"/>
<path fill-rule="evenodd" clip-rule="evenodd" d="M39 6.5C40.7949 6.5 42.25 7.95507 42.25 9.75V29.25C42.25 31.0449 40.7949 32.5 39 32.5C37.2051 32.5 35.75 31.0449 35.75 29.25V9.75C35.75 7.95507 37.2051 6.5 39 6.5Z" fill="#1F3F31"/>
<path fill-rule="evenodd" clip-rule="evenodd" d="M39 45.5C40.7949 45.5 42.25 46.9551 42.25 48.75V68.25C42.25 70.0449 40.7949 71.5 39 71.5C37.2051 71.5 35.75 70.0449 35.75 68.25V48.75C35.75 46.9551 37.2051 45.5 39 45.5Z" fill="#1F3F31"/>
<path fill-rule="evenodd" clip-rule="evenodd" d="M32.5 39C32.5 40.7949 31.0449 42.25 29.25 42.25L9.75 42.25C7.95507 42.25 6.5 40.7949 6.5 39C6.5 37.2051 7.95507 35.75 9.75 35.75L29.25 35.75C31.0449 35.75 32.5 37.2051 32.5 39Z" fill="#1F3F31"/>
<path fill-rule="evenodd" clip-rule="evenodd" d="M71.5 39C71.5 40.7949 70.0449 42.25 68.25 42.25L48.75 42.25C46.9551 42.25 45.5 40.7949 45.5 39C45.5 37.2051 46.9551 35.75 48.75 35.75L68.25 35.75C70.0449 35.75 71.5 37.2051 71.5 39Z" fill="#1F3F31"/>
</svg>
