<svg width="78" height="78" viewBox="0 0 78 78" fill="none" xmlns="http://www.w3.org/2000/svg">
<path fill-rule="evenodd" clip-rule="evenodd" d="M11.375 16.25C11.375 10.8652 15.7402 6.5 21.125 6.5L27.625 6.5C33.0098 6.5 37.375 10.8652 37.375 16.25L37.375 52C37.375 57.3848 33.0098 61.75 27.625 61.75L21.125 61.75C15.7402 61.75 11.375 57.3848 11.375 52L11.375 16.25ZM21.125 13C19.3301 13 17.875 14.4551 17.875 16.25L17.875 52C17.875 53.7949 19.3301 55.25 21.125 55.25L27.625 55.25C29.4199 55.25 30.875 53.7949 30.875 52L30.875 16.25C30.875 14.4551 29.4199 13 27.625 13L21.125 13Z" fill="#1F3F31"/>
<path fill-rule="evenodd" clip-rule="evenodd" d="M40.625 35.75C40.625 30.3652 44.9902 26 50.375 26L56.875 26C62.2598 26 66.625 30.3652 66.625 35.75L66.625 52C66.625 57.3848 62.2598 61.75 56.875 61.75L50.375 61.75C44.9902 61.75 40.625 57.3848 40.625 52L40.625 35.75ZM50.375 32.5C48.5801 32.5 47.125 33.9551 47.125 35.75L47.125 52C47.125 53.7949 48.5801 55.25 50.375 55.25L56.875 55.25C58.6699 55.25 60.125 53.7949 60.125 52L60.125 35.75C60.125 33.9551 58.6699 32.5 56.875 32.5L50.375 32.5Z" fill="#1F3F31"/>
<path fill-rule="evenodd" clip-rule="evenodd" d="M4.875 68.25C4.875 66.4551 6.33007 65 8.125 65L69.875 65C71.6699 65 73.125 66.4551 73.125 68.25C73.125 70.0449 71.6699 71.5 69.875 71.5L8.125 71.5C6.33007 71.5 4.875 70.0449 4.875 68.25Z" fill="#1F3F31"/>
</svg>
