<svg width="78" height="78" viewBox="0 0 78 78" fill="none" xmlns="http://www.w3.org/2000/svg">
<path fill-rule="evenodd" clip-rule="evenodd" d="M6.5 16.25C6.5 10.8652 10.8652 6.5 16.25 6.5H26C31.3848 6.5 35.75 10.8652 35.75 16.25C35.75 21.6348 31.3848 26 26 26H16.25C10.8652 26 6.5 21.6348 6.5 16.25ZM16.25 13C14.4551 13 13 14.4551 13 16.25C13 18.0449 14.4551 19.5 16.25 19.5H26C27.7949 19.5 29.25 18.0449 29.25 16.25C29.25 14.4551 27.7949 13 26 13H16.25Z" fill="#1F3F31"/>
<path fill-rule="evenodd" clip-rule="evenodd" d="M6.5 42.25C6.5 36.8652 10.8652 32.5 16.25 32.5H26C31.3848 32.5 35.75 36.8652 35.75 42.25V61.75C35.75 67.1348 31.3848 71.5 26 71.5H16.25C10.8652 71.5 6.5 67.1348 6.5 61.75V42.25ZM16.25 39C14.4551 39 13 40.4551 13 42.25V61.75C13 63.5449 14.4551 65 16.25 65H26C27.7949 65 29.25 63.5449 29.25 61.75V42.25C29.25 40.4551 27.7949 39 26 39H16.25Z" fill="#1F3F31"/>
<path fill-rule="evenodd" clip-rule="evenodd" d="M42.25 16.25C42.25 10.8652 46.6152 6.5 52 6.5H61.75C67.1348 6.5 71.5 10.8652 71.5 16.25V35.75C71.5 41.1348 67.1348 45.5 61.75 45.5H52C46.6152 45.5 42.25 41.1348 42.25 35.75V16.25ZM52 13C50.2051 13 48.75 14.4551 48.75 16.25V35.75C48.75 37.5449 50.2051 39 52 39H61.75C63.5449 39 65 37.5449 65 35.75V16.25C65 14.4551 63.5449 13 61.75 13H52Z" fill="#1F3F31"/>
<path fill-rule="evenodd" clip-rule="evenodd" d="M42.25 61.75C42.25 56.3652 46.6152 52 52 52H61.75C67.1348 52 71.5 56.3652 71.5 61.75C71.5 67.1348 67.1348 71.5 61.75 71.5H52C46.6152 71.5 42.25 67.1348 42.25 61.75ZM52 58.5C50.2051 58.5 48.75 59.9551 48.75 61.75C48.75 63.5449 50.2051 65 52 65H61.75C63.5449 65 65 63.5449 65 61.75C65 59.9551 63.5449 58.5 61.75 58.5H52Z" fill="#1F3F31"/>
</svg>
