<svg width="78" height="78" viewBox="0 0 78 78" fill="none" xmlns="http://www.w3.org/2000/svg">
<path fill-rule="evenodd" clip-rule="evenodd" d="M11.375 61.75C11.375 67.1348 15.7402 71.5 21.125 71.5L27.625 71.5C33.0098 71.5 37.375 67.1348 37.375 61.75L37.375 26C37.375 20.6152 33.0098 16.25 27.625 16.25L21.125 16.25C15.7402 16.25 11.375 20.6152 11.375 26L11.375 61.75ZM21.125 65C19.3301 65 17.875 63.5449 17.875 61.75L17.875 26C17.875 24.2051 19.3301 22.75 21.125 22.75L27.625 22.75C29.4199 22.75 30.875 24.2051 30.875 26L30.875 61.75C30.875 63.5449 29.4199 65 27.625 65L21.125 65Z" fill="#1F3F31"/>
<path fill-rule="evenodd" clip-rule="evenodd" d="M40.625 42.25C40.625 47.6348 44.9902 52 50.375 52L56.875 52C62.2598 52 66.625 47.6348 66.625 42.25L66.625 26C66.625 20.6152 62.2598 16.25 56.875 16.25L50.375 16.25C44.9902 16.25 40.625 20.6152 40.625 26L40.625 42.25ZM50.375 45.5C48.5801 45.5 47.125 44.0449 47.125 42.25L47.125 26C47.125 24.2051 48.5801 22.75 50.375 22.75L56.875 22.75C58.6699 22.75 60.125 24.2051 60.125 26L60.125 42.25C60.125 44.0449 58.6699 45.5 56.875 45.5L50.375 45.5Z" fill="#1F3F31"/>
<path fill-rule="evenodd" clip-rule="evenodd" d="M4.875 9.75C4.875 11.5449 6.33007 13 8.125 13L69.875 13C71.6699 13 73.125 11.5449 73.125 9.74999C73.125 7.95507 71.6699 6.49999 69.875 6.49999L8.125 6.5C6.33007 6.5 4.875 7.95507 4.875 9.75Z" fill="#1F3F31"/>
</svg>
