<svg width="78" height="78" viewBox="0 0 78 78" fill="none" xmlns="http://www.w3.org/2000/svg">
<path fill-rule="evenodd" clip-rule="evenodd" d="M14.625 47.125C16.4199 47.125 17.875 48.5801 17.875 50.375L17.875 61.75C17.875 63.5449 19.3301 65 21.125 65L27.625 65C29.4199 65 30.875 63.5449 30.875 61.75L30.875 50.375C30.875 48.5801 32.3301 47.125 34.125 47.125C35.9199 47.125 37.375 48.5801 37.375 50.375L37.375 61.75C37.375 67.1348 33.0098 71.5 27.625 71.5L21.125 71.5C15.7402 71.5 11.375 67.1348 11.375 61.75L11.375 50.375C11.375 48.5801 12.8301 47.125 14.625 47.125Z" fill="#1F3F31"/>
<path fill-rule="evenodd" clip-rule="evenodd" d="M43.875 47.125C45.6699 47.125 47.125 48.5801 47.125 50.375L47.125 52C47.125 53.7949 48.5801 55.25 50.375 55.25L56.875 55.25C58.6699 55.25 60.125 53.7949 60.125 52L60.125 50.375C60.125 48.5801 61.5801 47.125 63.375 47.125C65.1699 47.125 66.625 48.5801 66.625 50.375L66.625 52C66.625 57.3848 62.2598 61.75 56.875 61.75L50.375 61.75C44.9902 61.75 40.625 57.3848 40.625 52L40.625 50.375C40.625 48.5801 42.0801 47.125 43.875 47.125Z" fill="#1F3F31"/>
<path fill-rule="evenodd" clip-rule="evenodd" d="M4.875 39C4.875 37.2051 6.33007 35.75 8.125 35.75L69.875 35.75C71.6699 35.75 73.125 37.2051 73.125 39C73.125 40.7949 71.6699 42.25 69.875 42.25L8.125 42.25C6.33007 42.25 4.875 40.7949 4.875 39Z" fill="#1F3F31"/>
<path fill-rule="evenodd" clip-rule="evenodd" d="M11.375 16.25C11.375 10.8652 15.7402 6.5 21.125 6.5L27.625 6.5C33.0098 6.5 37.375 10.8652 37.375 16.25L37.375 27.625C37.375 29.4199 35.9199 30.875 34.125 30.875C32.3301 30.875 30.875 29.4199 30.875 27.625L30.875 16.25C30.875 14.4551 29.4199 13 27.625 13L21.125 13C19.3301 13 17.875 14.4551 17.875 16.25L17.875 27.625C17.875 29.4199 16.4199 30.875 14.625 30.875C12.8301 30.875 11.375 29.4199 11.375 27.625L11.375 16.25Z" fill="#1F3F31"/>
<path fill-rule="evenodd" clip-rule="evenodd" d="M40.625 26C40.625 20.6152 44.9902 16.25 50.375 16.25L56.875 16.25C62.2598 16.25 66.625 20.6152 66.625 26L66.625 27.625C66.625 29.4199 65.1699 30.875 63.375 30.875C61.5801 30.875 60.125 29.4199 60.125 27.625L60.125 26C60.125 24.2051 58.6699 22.75 56.875 22.75L50.375 22.75C48.5801 22.75 47.125 24.2051 47.125 26L47.125 27.625C47.125 29.4199 45.6699 30.875 43.875 30.875C42.0801 30.875 40.625 29.4199 40.625 27.625L40.625 26Z" fill="#1F3F31"/>
</svg>
