<svg width="78" height="78" viewBox="0 0 78 78" fill="none" xmlns="http://www.w3.org/2000/svg">
<path fill-rule="evenodd" clip-rule="evenodd" d="M13.2012 35.75H22.8469C23.2319 29.182 24.7022 23.0015 26.1426 18.3009C26.3919 17.4871 26.6414 16.7147 26.8854 15.9889C19.5385 19.8648 14.2728 27.1562 13.2012 35.75ZM34.8036 13.3369C34.7114 13.5606 34.6112 13.8076 34.5042 14.0767C33.9215 15.5412 33.1398 17.6518 32.3574 20.2052C31.0326 24.5287 29.7365 30.0229 29.3594 35.75H48.6406C48.2635 30.0229 46.9674 24.5287 45.6426 20.2052C44.8602 17.6518 44.0785 15.5412 43.4958 14.0767C43.3888 13.8076 43.2886 13.5606 43.1964 13.3369C41.8304 13.1152 40.4286 13 39 13C37.5714 13 36.1696 13.1152 34.8036 13.3369ZM51.1146 15.9889C51.3586 16.7147 51.6081 17.4871 51.8574 18.3009C53.2978 23.0015 54.7681 29.182 55.1531 35.75H64.7988C63.7272 27.1562 58.4615 19.8648 51.1146 15.9889ZM64.7988 42.25H55.1531C54.7681 48.818 53.2978 54.9985 51.8574 59.6991C51.6081 60.5128 51.3586 61.2853 51.1146 62.0111C58.4615 58.1352 63.7272 50.8438 64.7988 42.25ZM43.1964 64.6631C43.2886 64.4394 43.3888 64.1924 43.4958 63.9233C44.0785 62.4588 44.8602 60.3482 45.6426 57.7948C46.9674 53.4713 48.2635 47.9771 48.6406 42.25H29.3594C29.7365 47.9771 31.0326 53.4713 32.3574 57.7948C33.1398 60.3482 33.9215 62.4588 34.5042 63.9233C34.6112 64.1924 34.7115 64.4394 34.8036 64.6631C36.1696 64.8848 37.5714 65 39 65C40.4286 65 41.8304 64.8848 43.1964 64.6631ZM26.8854 62.0111C26.6414 61.2853 26.3919 60.5128 26.1426 59.6991C24.7022 54.9985 23.2319 48.818 22.8469 42.25H13.2012C14.2728 50.8438 19.5385 58.1352 26.8854 62.0111ZM6.5 39C6.5 21.0507 21.0507 6.5 39 6.5C56.9493 6.5 71.5 21.0507 71.5 39C71.5 56.9493 56.9493 71.5 39 71.5C21.0507 71.5 6.5 56.9493 6.5 39Z" fill="#1F3F31"/>
</svg>
