<svg width="78" height="78" viewBox="0 0 78 78" fill="none" xmlns="http://www.w3.org/2000/svg">
<path fill-rule="evenodd" clip-rule="evenodd" d="M8.90523 20.6313C3.89966 14.2308 8.46005 4.875 16.5855 4.875H61.4155C69.5409 4.875 74.1013 14.2308 69.0957 20.6313L50.369 44.577C49.9219 45.1487 49.679 45.8535 49.679 46.5791V62.3739C49.679 66.2476 47.3859 69.7538 43.837 71.3064L37.4272 74.1107C33.1327 75.9896 28.3219 72.8432 28.3219 68.1557V46.5791C28.3219 45.8535 28.079 45.1487 27.632 44.577L8.90523 20.6313ZM16.5855 11.375C13.877 11.375 12.3569 14.4936 14.0254 16.6271L32.7522 40.5728C34.0933 42.2877 34.8219 44.4021 34.8219 46.5791V68.1557L41.2317 65.3514C42.4147 64.8339 43.179 63.6651 43.179 62.3739V46.5791C43.179 44.4021 43.9077 42.2877 45.2488 40.5728L63.9755 16.6271C65.6441 14.4936 64.1239 11.375 61.4155 11.375H16.5855Z" fill="#1F3F31"/>
</svg>
