<svg width="78" height="78" viewBox="0 0 78 78" fill="none" xmlns="http://www.w3.org/2000/svg">
<path fill-rule="evenodd" clip-rule="evenodd" d="M39 16.25C34.064 16.25 30.0625 20.2515 30.0625 25.1875C30.0625 30.1235 34.064 34.125 39 34.125C43.936 34.125 47.9375 30.1235 47.9375 25.1875C47.9375 20.2515 43.936 16.25 39 16.25ZM23.5625 25.1875C23.5625 16.6616 30.4741 9.75 39 9.75C47.5259 9.75 54.4375 16.6616 54.4375 25.1875C54.4375 33.7134 47.5259 40.625 39 40.625C30.4741 40.625 23.5625 33.7134 23.5625 25.1875Z" fill="#1F3F31"/>
<path fill-rule="evenodd" clip-rule="evenodd" d="M17.875 24.375C14.2851 24.375 11.375 27.2851 11.375 30.875C11.375 34.4649 14.2851 37.375 17.875 37.375C19.2086 37.375 20.4394 36.9769 21.467 36.2936C22.9617 35.2998 24.979 35.7059 25.9728 37.2006C26.9666 38.6953 26.5606 40.7126 25.0659 41.7064C23.005 43.0766 20.5283 43.875 17.875 43.875C10.6953 43.875 4.875 38.0547 4.875 30.875C4.875 23.6953 10.6953 17.875 17.875 17.875C19.6699 17.875 21.125 19.3301 21.125 21.125C21.125 22.9199 19.6699 24.375 17.875 24.375Z" fill="#1F3F31"/>
<path fill-rule="evenodd" clip-rule="evenodd" d="M60.125 24.375C63.7148 24.375 66.625 27.2851 66.625 30.875C66.625 34.4649 63.7148 37.375 60.125 37.375C58.7914 37.375 57.5606 36.9769 56.533 36.2936C55.0383 35.2998 53.021 35.7059 52.0272 37.2006C51.0334 38.6953 51.4394 40.7126 52.9341 41.7064C54.995 43.0766 57.4717 43.875 60.125 43.875C67.3047 43.875 73.125 38.0547 73.125 30.875C73.125 23.6953 67.3047 17.875 60.125 17.875C58.3301 17.875 56.875 19.3301 56.875 21.125C56.875 22.9199 58.3301 24.375 60.125 24.375Z" fill="#1F3F31"/>
<path fill-rule="evenodd" clip-rule="evenodd" d="M38.9998 48.75C48.4252 48.75 54.2498 52.1019 57.1127 54.7457C57.2887 54.9082 57.4022 55.1218 57.4221 55.4657C57.4441 55.8473 57.3379 56.3632 57.032 56.8876L55.1362 60.1376C54.5538 61.136 53.4848 61.75 52.3289 61.75H25.6707C24.5148 61.75 23.4459 61.136 22.8634 60.1376L20.9676 56.8876C20.6617 56.3632 20.5556 55.8473 20.5776 55.4657C20.5974 55.1218 20.7109 54.9082 20.8869 54.7457C23.7498 52.1019 29.5744 48.75 38.9998 48.75ZM61.5225 49.9704C57.4553 46.2144 50.0548 42.25 38.9998 42.25C27.9448 42.25 20.5444 46.2144 16.4771 49.9704C13.2858 52.9174 13.6731 57.2828 15.353 60.1627L17.2489 63.4127C18.9962 66.4081 22.203 68.25 25.6707 68.25H52.3289C55.7967 68.25 59.0035 66.4081 60.7508 63.4127L62.6466 60.1627C64.3265 57.2828 64.7139 52.9174 61.5225 49.9704Z" fill="#1F3F31"/>
<path fill-rule="evenodd" clip-rule="evenodd" d="M14.9764 46.388C14.1358 44.8021 12.1687 44.1979 10.5828 45.0384C8.56016 46.1105 6.83765 47.2654 5.39874 48.4209C0.380265 52.4512 1.59549 59.0112 4.77717 62.8449L8.10959 66.8602C9.25589 68.2415 11.3048 68.4319 12.6861 67.2856C14.0673 66.1393 14.2577 64.0903 13.1114 62.7091L9.77898 58.6938C8.93133 57.6724 8.52807 56.5303 8.51193 55.5945C8.49703 54.7311 8.79337 54.0314 9.46876 53.489C10.5828 52.5943 11.961 51.6645 13.6268 50.7816C15.2127 49.941 15.817 47.9739 14.9764 46.388Z" fill="#1F3F31"/>
<path fill-rule="evenodd" clip-rule="evenodd" d="M63.0246 46.7636C63.8652 45.1777 65.8322 44.5735 67.4182 45.414C69.4408 46.4861 71.1633 47.641 72.6022 48.7965C77.6207 52.8268 76.4055 59.3868 73.2238 63.2205L69.8914 67.2359C68.7451 68.6171 66.6961 68.8075 65.3149 67.6612C63.9337 66.5149 63.7433 64.4659 64.8896 63.0847L68.222 59.0694C69.0696 58.048 69.4729 56.9059 69.489 55.9701C69.5039 55.1068 69.2076 54.407 68.5322 53.8646C67.4182 52.9699 66.04 52.0401 64.3742 51.1572C62.7882 50.3166 62.184 48.3496 63.0246 46.7636Z" fill="#1F3F31"/>
</svg>
