<svg width="78" height="78" viewBox="0 0 78 78" fill="none" xmlns="http://www.w3.org/2000/svg">
<path d="M47.125 42.25C45.7788 42.25 44.6875 41.1587 44.6875 39.8125C44.6875 38.4663 45.7788 37.375 47.125 37.375C48.4712 37.375 49.5625 38.4663 49.5625 39.8125C49.5625 41.1587 48.4712 42.25 47.125 42.25Z" fill="#1F3F31"/>
<path fill-rule="evenodd" clip-rule="evenodd" d="M46.3125 39.8125C46.3125 40.2612 46.6763 40.625 47.125 40.625C47.5737 40.625 47.9375 40.2612 47.9375 39.8125C47.9375 39.3638 47.5737 39 47.125 39C46.6763 39 46.3125 39.3638 46.3125 39.8125ZM47.125 34.125C50.2661 34.125 52.8125 36.6714 52.8125 39.8125C52.8125 42.9536 50.2661 45.5 47.125 45.5C43.9839 45.5 41.4375 42.9536 41.4375 39.8125C41.4375 36.6714 43.9839 34.125 47.125 34.125Z" fill="#1F3F31"/>
<path d="M30.875 42.25C29.5288 42.25 28.4375 41.1587 28.4375 39.8125C28.4375 38.4663 29.5288 37.375 30.875 37.375C32.2212 37.375 33.3125 38.4663 33.3125 39.8125C33.3125 41.1587 32.2212 42.25 30.875 42.25Z" fill="#1F3F31"/>
<path fill-rule="evenodd" clip-rule="evenodd" d="M30.0625 39.8125C30.0625 40.2612 30.4263 40.625 30.875 40.625C31.3237 40.625 31.6875 40.2612 31.6875 39.8125C31.6875 39.3638 31.3237 39 30.875 39C30.4263 39 30.0625 39.3638 30.0625 39.8125ZM30.875 34.125C34.0161 34.125 36.5625 36.6714 36.5625 39.8125C36.5625 42.9536 34.0161 45.5 30.875 45.5C27.7339 45.5 25.1875 42.9536 25.1875 39.8125C25.1875 36.6714 27.7339 34.125 30.875 34.125Z" fill="#1F3F31"/>
<path d="M47.125 60.9375C45.7788 60.9375 44.6875 59.8462 44.6875 58.5C44.6875 57.1538 45.7788 56.0625 47.125 56.0625C48.4712 56.0625 49.5625 57.1538 49.5625 58.5C49.5625 59.8462 48.4712 60.9375 47.125 60.9375Z" fill="#1F3F31"/>
<path fill-rule="evenodd" clip-rule="evenodd" d="M46.3125 58.5C46.3125 58.9487 46.6763 59.3125 47.125 59.3125C47.5737 59.3125 47.9375 58.9487 47.9375 58.5C47.9375 58.0513 47.5737 57.6875 47.125 57.6875C46.6763 57.6875 46.3125 58.0513 46.3125 58.5ZM47.125 52.8125C50.2661 52.8125 52.8125 55.3589 52.8125 58.5C52.8125 61.6411 50.2661 64.1875 47.125 64.1875C43.9839 64.1875 41.4375 61.6411 41.4375 58.5C41.4375 55.3589 43.9839 52.8125 47.125 52.8125Z" fill="#1F3F31"/>
<path d="M30.875 60.9375C29.5288 60.9375 28.4375 59.8462 28.4375 58.5C28.4375 57.1538 29.5288 56.0625 30.875 56.0625C32.2212 56.0625 33.3125 57.1538 33.3125 58.5C33.3125 59.8462 32.2212 60.9375 30.875 60.9375Z" fill="#1F3F31"/>
<path fill-rule="evenodd" clip-rule="evenodd" d="M30.0625 58.5C30.0625 58.9487 30.4263 59.3125 30.875 59.3125C31.3237 59.3125 31.6875 58.9487 31.6875 58.5C31.6875 58.0513 31.3237 57.6875 30.875 57.6875C30.4263 57.6875 30.0625 58.0513 30.0625 58.5ZM30.875 52.8125C34.0161 52.8125 36.5625 55.3589 36.5625 58.5C36.5625 61.6411 34.0161 64.1875 30.875 64.1875C27.7339 64.1875 25.1875 61.6411 25.1875 58.5C25.1875 55.3589 27.7339 52.8125 30.875 52.8125Z" fill="#1F3F31"/>
<path d="M47.125 23.5625C45.7788 23.5625 44.6875 22.4712 44.6875 21.125C44.6875 19.7788 45.7788 18.6875 47.125 18.6875C48.4712 18.6875 49.5625 19.7788 49.5625 21.125C49.5625 22.4712 48.4712 23.5625 47.125 23.5625Z" fill="#1F3F31"/>
<path fill-rule="evenodd" clip-rule="evenodd" d="M46.3125 21.125C46.3125 21.5737 46.6763 21.9375 47.125 21.9375C47.5737 21.9375 47.9375 21.5737 47.9375 21.125C47.9375 20.6763 47.5737 20.3125 47.125 20.3125C46.6763 20.3125 46.3125 20.6763 46.3125 21.125ZM47.125 15.4375C50.2661 15.4375 52.8125 17.9839 52.8125 21.125C52.8125 24.2661 50.2661 26.8125 47.125 26.8125C43.9839 26.8125 41.4375 24.2661 41.4375 21.125C41.4375 17.9839 43.9839 15.4375 47.125 15.4375Z" fill="#1F3F31"/>
<path d="M30.875 23.5625C29.5288 23.5625 28.4375 22.4712 28.4375 21.125C28.4375 19.7788 29.5288 18.6875 30.875 18.6875C32.2212 18.6875 33.3125 19.7788 33.3125 21.125C33.3125 22.4712 32.2212 23.5625 30.875 23.5625Z" fill="#1F3F31"/>
<path fill-rule="evenodd" clip-rule="evenodd" d="M30.0625 21.125C30.0625 21.5737 30.4263 21.9375 30.875 21.9375C31.3237 21.9375 31.6875 21.5737 31.6875 21.125C31.6875 20.6763 31.3237 20.3125 30.875 20.3125C30.4263 20.3125 30.0625 20.6763 30.0625 21.125ZM30.875 15.4375C34.0161 15.4375 36.5625 17.9839 36.5625 21.125C36.5625 24.2661 34.0161 26.8125 30.875 26.8125C27.7339 26.8125 25.1875 24.2661 25.1875 21.125C25.1875 17.9839 27.7339 15.4375 30.875 15.4375Z" fill="#1F3F31"/>
</svg>
