<svg width="78" height="78" viewBox="0 0 78 78" fill="none" xmlns="http://www.w3.org/2000/svg">
<path fill-rule="evenodd" clip-rule="evenodd" d="M3.25 19.5C3.25 10.5254 10.5254 3.25 19.5 3.25H58.5C67.4746 3.25 74.75 10.5254 74.75 19.5V58.5C74.75 67.4746 67.4746 74.75 58.5 74.75H19.5C10.5254 74.75 3.25 67.4746 3.25 58.5V19.5ZM19.5 9.75C14.1152 9.75 9.75 14.1152 9.75 19.5V58.5C9.75 63.8848 14.1152 68.25 19.5 68.25H58.5C63.8848 68.25 68.25 63.8848 68.25 58.5V19.5C68.25 14.1152 63.8848 9.75 58.5 9.75H19.5Z" fill="#1F3F31"/>
<path fill-rule="evenodd" clip-rule="evenodd" d="M13 37.375C13 33.7851 15.9101 30.875 19.5 30.875H22.75C26.3399 30.875 29.25 33.7851 29.25 37.375V40.625C29.25 44.2149 26.3399 47.125 22.75 47.125H19.5C15.9101 47.125 13 44.2149 13 40.625V37.375ZM22.75 37.375H19.5V40.625H22.75V37.375Z" fill="#1F3F31"/>
<path fill-rule="evenodd" clip-rule="evenodd" d="M13 55.25C13 51.6601 15.9101 48.75 19.5 48.75H22.75C26.3399 48.75 29.25 51.6601 29.25 55.25V58.5C29.25 62.0899 26.3399 65 22.75 65H19.5C15.9101 65 13 62.0899 13 58.5V55.25ZM22.75 55.25H19.5V58.5H22.75V55.25Z" fill="#1F3F31"/>
<path fill-rule="evenodd" clip-rule="evenodd" d="M30.875 37.375C30.875 33.7851 33.7851 30.875 37.375 30.875H40.625C44.2149 30.875 47.125 33.7851 47.125 37.375V40.625C47.125 44.2149 44.2149 47.125 40.625 47.125H37.375C33.7851 47.125 30.875 44.2149 30.875 40.625V37.375ZM40.625 37.375H37.375V40.625H40.625V37.375Z" fill="#1F3F31"/>
<path fill-rule="evenodd" clip-rule="evenodd" d="M13 19.5C13 15.9101 15.9101 13 19.5 13H58.5C62.0898 13 65 15.9101 65 19.5V22.75C65 26.3399 62.0899 29.25 58.5 29.25H19.5C15.9102 29.25 13 26.3399 13 22.75V19.5ZM58.5 19.5H19.5V22.75H58.5V19.5Z" fill="#1F3F31"/>
<path fill-rule="evenodd" clip-rule="evenodd" d="M30.875 55.25C30.875 51.6601 33.7851 48.75 37.375 48.75H40.625C44.2149 48.75 47.125 51.6601 47.125 55.25V58.5C47.125 62.0899 44.2149 65 40.625 65H37.375C33.7851 65 30.875 62.0899 30.875 58.5V55.25ZM40.625 55.25H37.375V58.5H40.625V55.25Z" fill="#1F3F31"/>
<path fill-rule="evenodd" clip-rule="evenodd" d="M48.75 37.375C48.75 33.7851 51.6601 30.875 55.25 30.875H58.5C62.0899 30.875 65 33.7851 65 37.375V40.625C65 44.2149 62.0899 47.125 58.5 47.125H55.25C51.6601 47.125 48.75 44.2149 48.75 40.625V37.375ZM58.5 37.375H55.25V40.625H58.5V37.375Z" fill="#1F3F31"/>
<path fill-rule="evenodd" clip-rule="evenodd" d="M48.75 55.25C48.75 51.6601 51.6601 48.75 55.25 48.75H58.5C62.0899 48.75 65 51.6601 65 55.25V58.5C65 62.0899 62.0899 65 58.5 65H55.25C51.6601 65 48.75 62.0899 48.75 58.5V55.25ZM58.5 55.25H55.25V58.5H58.5V55.25Z" fill="#1F3F31"/>
</svg>
