<svg width="78" height="78" viewBox="0 0 78 78" fill="none" xmlns="http://www.w3.org/2000/svg">
<path d="M41.4375 31.6875C41.4375 33.0337 40.3462 34.125 39 34.125C37.6538 34.125 36.5625 33.0337 36.5625 31.6875C36.5625 30.3413 37.6538 29.25 39 29.25C40.3462 29.25 41.4375 30.3413 41.4375 31.6875Z" fill="#1F3F31"/>
<path fill-rule="evenodd" clip-rule="evenodd" d="M39 32.5C39.4487 32.5 39.8125 32.1362 39.8125 31.6875C39.8125 31.2388 39.4487 30.875 39 30.875C38.5513 30.875 38.1875 31.2388 38.1875 31.6875C38.1875 32.1362 38.5513 32.5 39 32.5ZM33.3125 31.6875C33.3125 28.5464 35.8589 26 39 26C42.1411 26 44.6875 28.5464 44.6875 31.6875C44.6875 34.8286 42.1411 37.375 39 37.375C35.8589 37.375 33.3125 34.8286 33.3125 31.6875Z" fill="#1F3F31"/>
<path d="M41.4375 47.9375C41.4375 49.2837 40.3462 50.375 39 50.375C37.6538 50.375 36.5625 49.2837 36.5625 47.9375C36.5625 46.5913 37.6538 45.5 39 45.5C40.3462 45.5 41.4375 46.5913 41.4375 47.9375Z" fill="#1F3F31"/>
<path fill-rule="evenodd" clip-rule="evenodd" d="M39 48.75C39.4487 48.75 39.8125 48.3862 39.8125 47.9375C39.8125 47.4888 39.4487 47.125 39 47.125C38.5513 47.125 38.1875 47.4888 38.1875 47.9375C38.1875 48.3862 38.5513 48.75 39 48.75ZM33.3125 47.9375C33.3125 44.7964 35.8589 42.25 39 42.25C42.1411 42.25 44.6875 44.7964 44.6875 47.9375C44.6875 51.0786 42.1411 53.625 39 53.625C35.8589 53.625 33.3125 51.0786 33.3125 47.9375Z" fill="#1F3F31"/>
<path d="M60.125 31.6875C60.125 33.0337 59.0337 34.125 57.6875 34.125C56.3413 34.125 55.25 33.0337 55.25 31.6875C55.25 30.3413 56.3413 29.25 57.6875 29.25C59.0337 29.25 60.125 30.3413 60.125 31.6875Z" fill="#1F3F31"/>
<path fill-rule="evenodd" clip-rule="evenodd" d="M57.6875 32.5C58.1362 32.5 58.5 32.1362 58.5 31.6875C58.5 31.2388 58.1362 30.875 57.6875 30.875C57.2388 30.875 56.875 31.2388 56.875 31.6875C56.875 32.1362 57.2388 32.5 57.6875 32.5ZM52 31.6875C52 28.5464 54.5464 26 57.6875 26C60.8286 26 63.375 28.5464 63.375 31.6875C63.375 34.8286 60.8286 37.375 57.6875 37.375C54.5464 37.375 52 34.8286 52 31.6875Z" fill="#1F3F31"/>
<path d="M60.125 47.9375C60.125 49.2837 59.0337 50.375 57.6875 50.375C56.3413 50.375 55.25 49.2837 55.25 47.9375C55.25 46.5913 56.3413 45.5 57.6875 45.5C59.0337 45.5 60.125 46.5913 60.125 47.9375Z" fill="#1F3F31"/>
<path fill-rule="evenodd" clip-rule="evenodd" d="M57.6875 48.75C58.1362 48.75 58.5 48.3862 58.5 47.9375C58.5 47.4888 58.1362 47.125 57.6875 47.125C57.2388 47.125 56.875 47.4888 56.875 47.9375C56.875 48.3862 57.2388 48.75 57.6875 48.75ZM52 47.9375C52 44.7964 54.5464 42.25 57.6875 42.25C60.8286 42.25 63.375 44.7964 63.375 47.9375C63.375 51.0786 60.8286 53.625 57.6875 53.625C54.5464 53.625 52 51.0786 52 47.9375Z" fill="#1F3F31"/>
<path d="M22.75 31.6875C22.75 33.0337 21.6587 34.125 20.3125 34.125C18.9663 34.125 17.875 33.0337 17.875 31.6875C17.875 30.3413 18.9663 29.25 20.3125 29.25C21.6587 29.25 22.75 30.3413 22.75 31.6875Z" fill="#1F3F31"/>
<path fill-rule="evenodd" clip-rule="evenodd" d="M20.3125 32.5C20.7612 32.5 21.125 32.1362 21.125 31.6875C21.125 31.2388 20.7612 30.875 20.3125 30.875C19.8638 30.875 19.5 31.2388 19.5 31.6875C19.5 32.1362 19.8638 32.5 20.3125 32.5ZM14.625 31.6875C14.625 28.5464 17.1714 26 20.3125 26C23.4536 26 26 28.5464 26 31.6875C26 34.8286 23.4536 37.375 20.3125 37.375C17.1714 37.375 14.625 34.8286 14.625 31.6875Z" fill="#1F3F31"/>
<path d="M22.75 47.9375C22.75 49.2837 21.6587 50.375 20.3125 50.375C18.9663 50.375 17.875 49.2837 17.875 47.9375C17.875 46.5913 18.9663 45.5 20.3125 45.5C21.6587 45.5 22.75 46.5913 22.75 47.9375Z" fill="#1F3F31"/>
<path fill-rule="evenodd" clip-rule="evenodd" d="M20.3125 48.75C20.7612 48.75 21.125 48.3862 21.125 47.9375C21.125 47.4888 20.7612 47.125 20.3125 47.125C19.8638 47.125 19.5 47.4888 19.5 47.9375C19.5 48.3862 19.8638 48.75 20.3125 48.75ZM14.625 47.9375C14.625 44.7964 17.1714 42.25 20.3125 42.25C23.4536 42.25 26 44.7964 26 47.9375C26 51.0786 23.4536 53.625 20.3125 53.625C17.1714 53.625 14.625 51.0786 14.625 47.9375Z" fill="#1F3F31"/>
</svg>
