<svg width="78" height="78" viewBox="0 0 78 78" fill="none" xmlns="http://www.w3.org/2000/svg">
<path fill-rule="evenodd" clip-rule="evenodd" d="M35.0032 8.29655C37.7481 6.9241 40.979 6.9241 43.7239 8.29655L60.5606 16.7149C63.3417 18.1055 65.4772 20.8369 65.7292 24.2163C66.2851 31.6685 65.3592 41.2225 61.9261 49.9036C58.4834 58.609 52.3896 66.7204 42.4644 70.6035C40.4714 71.3833 38.2558 71.3833 36.2627 70.6035C26.3376 66.7204 20.2437 58.609 16.801 49.9036C13.368 41.2225 12.442 31.6685 12.9979 24.2163C13.25 20.8369 15.3854 18.1055 18.1665 16.7149L35.0032 8.29655ZM40.817 14.1103C39.902 13.6528 38.8251 13.6528 37.9101 14.1103L21.0734 22.5287C20.0832 23.0238 19.5414 23.8744 19.4799 24.6998C18.9849 31.3359 19.8289 39.8851 22.8455 47.5132C25.8526 55.117 30.8882 61.521 38.631 64.5503C39.1014 64.7344 39.6257 64.7344 40.0961 64.5503C47.839 61.521 52.8746 55.117 55.8816 47.5132C58.8982 39.8851 59.7423 31.3359 59.2473 24.6998C59.1857 23.8744 58.6439 23.0238 57.6537 22.5287L40.817 14.1103Z" fill="#1F3F31"/>
</svg>
