<svg width="78" height="78" viewBox="0 0 78 78" fill="none" xmlns="http://www.w3.org/2000/svg">
<path fill-rule="evenodd" clip-rule="evenodd" d="M31.0058 12.8224C34.1524 6.0006 43.8479 6.00059 46.9945 12.8224L50.5138 20.4522C50.9872 21.4785 51.9599 22.1852 53.0823 22.3183L61.4261 23.3076C68.8864 24.1922 71.8825 33.4132 66.3669 38.5138L61.9469 42.6014C60.6291 43.82 58.5729 43.7397 57.3542 42.4218C56.1355 41.104 56.2159 39.0478 57.5337 37.8292L61.9538 33.7416C63.3971 32.4069 62.6131 29.9939 60.6608 29.7624L52.317 28.7731C48.9497 28.3739 46.0317 26.2538 44.6114 23.1747L41.0922 15.5449C40.2687 13.7598 37.7316 13.7598 36.9081 15.5449L34.3865 21.0118C33.6347 22.6416 31.704 23.3535 30.0741 22.6017C28.4442 21.8499 27.7324 19.9191 28.4842 18.2893L31.0058 12.8224ZM7.18475 14.2547C8.28673 12.8379 10.3286 12.5827 11.7455 13.6847L24.0186 23.2304C24.0212 23.2325 24.0239 23.2345 24.0265 23.2366L58.8489 50.3207C58.8645 50.3326 58.88 50.3446 58.8954 50.3568L70.2455 59.1846C71.6623 60.2866 71.9175 62.3285 70.8155 63.7453C69.7136 65.1622 67.6717 65.4174 66.2548 64.3154L60.6124 59.9269C59.0029 64.8664 53.0643 67.7571 47.9194 64.8772L40.5876 60.7731C39.6013 60.2211 38.399 60.2211 37.4127 60.7731L31.8709 63.8752C24.6109 67.939 15.924 61.6277 17.5455 53.4672L18.7832 47.238C19.0035 46.1294 18.632 44.986 17.8022 44.2186L11.6334 38.5138L13.84 36.1277L11.6334 38.5138C6.72564 33.9753 8.55683 26.1746 14.2756 23.8872L7.75484 18.8154C6.33801 17.7135 6.08278 15.6716 7.18475 14.2547ZM21.1242 29.2138L17.4239 29.7513C17.3958 29.7553 17.3677 29.7591 17.3395 29.7624C15.3872 29.9939 14.6032 32.4069 16.0465 33.7416L14.2674 35.6656L16.0465 33.7416L22.2153 39.4464C24.7049 41.7486 25.8195 45.179 25.1586 48.5048L23.9209 54.734C23.3804 57.4542 26.276 59.558 28.696 58.2033L34.2378 55.1013C37.1967 53.445 40.8036 53.445 43.7625 55.1013L51.0942 59.2053C52.7925 60.1559 54.8211 58.7039 54.49 56.804L53.9898 54.7759L21.1242 29.2138Z" fill="#1F3F31"/>
</svg>
