<svg width="78" height="78" viewBox="0 0 78 78" fill="none" xmlns="http://www.w3.org/2000/svg">
<path fill-rule="evenodd" clip-rule="evenodd" d="M6.5 16.25C6.5 10.8652 10.8652 6.5 16.25 6.5H26C31.3848 6.5 35.75 10.8652 35.75 16.25V26C35.75 31.3848 31.3848 35.75 26 35.75H16.25C10.8652 35.75 6.5 31.3848 6.5 26V16.25ZM16.25 13C14.4551 13 13 14.4551 13 16.25V26C13 27.7949 14.4551 29.25 16.25 29.25H26C27.7949 29.25 29.25 27.7949 29.25 26V16.25C29.25 14.4551 27.7949 13 26 13H16.25Z" fill="#1F3F31"/>
<path fill-rule="evenodd" clip-rule="evenodd" d="M6.5 52C6.5 46.6152 10.8652 42.25 16.25 42.25H26C31.3848 42.25 35.75 46.6152 35.75 52V61.75C35.75 67.1348 31.3848 71.5 26 71.5H16.25C10.8652 71.5 6.5 67.1348 6.5 61.75V52ZM16.25 48.75C14.4551 48.75 13 50.2051 13 52V61.75C13 63.5449 14.4551 65 16.25 65H26C27.7949 65 29.25 63.5449 29.25 61.75V52C29.25 50.2051 27.7949 48.75 26 48.75H16.25Z" fill="#1F3F31"/>
<path fill-rule="evenodd" clip-rule="evenodd" d="M42.25 16.25C42.25 10.8652 46.6152 6.5 52 6.5H61.75C67.1348 6.5 71.5 10.8652 71.5 16.25V26C71.5 31.3848 67.1348 35.75 61.75 35.75H52C46.6152 35.75 42.25 31.3848 42.25 26V16.25ZM52 13C50.2051 13 48.75 14.4551 48.75 16.25V26C48.75 27.7949 50.2051 29.25 52 29.25H61.75C63.5449 29.25 65 27.7949 65 26V16.25C65 14.4551 63.5449 13 61.75 13H52Z" fill="#1F3F31"/>
<path fill-rule="evenodd" clip-rule="evenodd" d="M42.25 52C42.25 46.6152 46.6152 42.25 52 42.25H61.75C67.1348 42.25 71.5 46.6152 71.5 52V61.75C71.5 67.1348 67.1348 71.5 61.75 71.5H52C46.6152 71.5 42.25 67.1348 42.25 61.75V52ZM52 48.75C50.2051 48.75 48.75 50.2051 48.75 52V61.75C48.75 63.5449 50.2051 65 52 65H61.75C63.5449 65 65 63.5449 65 61.75V52C65 50.2051 63.5449 48.75 61.75 48.75H52Z" fill="#1F3F31"/>
</svg>
