<svg width="250" height="100" viewBox="0 0 250 100" fill="none" xmlns="http://www.w3.org/2000/svg">
<path d="M127.379 39.0746C128.513 39.0746 129.579 39.1143 130.64 39.0595C131.259 39.0275 131.368 39.2465 131.363 39.8146C131.337 43.3129 131.35 46.8114 131.35 50.3011C131.514 50.3898 131.581 50.2655 131.656 50.1903C133.304 48.536 134.959 46.8896 136.673 45.303C136.971 45.0273 137.242 44.8796 137.656 44.8843C139.5 44.905 141.345 44.8906 143.189 44.8971C143.39 44.8978 143.607 44.8285 143.895 45.0396C141.594 47.2908 139.507 49.7083 137.182 51.883C139.612 54.9702 142.013 58.0209 144.526 61.2139C143.966 61.2139 143.556 61.2139 143.146 61.2139C141.491 61.2139 139.835 61.1805 138.181 61.2313C137.569 61.2502 137.227 60.972 136.894 60.5496C135.612 58.9222 134.321 57.3018 133.037 55.6845C132.967 55.7284 132.946 55.7398 132.927 55.7535C131.687 56.6446 131.059 57.7821 131.332 59.3666C131.43 59.9335 131.537 60.7287 131.24 61.0737C130.889 61.4797 130.087 61.1945 129.482 61.2077C128.442 61.2303 127.4 61.1807 126.362 61.2272C125.798 61.2525 125.658 61.0781 125.661 60.5234C125.683 55.6764 125.674 50.8292 125.674 45.9821C125.674 43.925 125.695 41.8676 125.66 39.8111C125.65 39.237 125.775 38.9788 126.387 39.0671C126.688 39.1105 127.001 39.0746 127.379 39.0746Z" fill="#EFE9DF"/>
<path d="M158.704 52.3812C157.743 53.2468 156.817 54.0753 155.895 54.9082C155.395 55.3595 154.996 55.9153 154.431 56.3882C154.842 56.3882 155.253 56.3882 155.664 56.3882C157.627 56.3882 159.59 56.4003 161.553 56.3791C161.998 56.3743 162.173 56.473 162.16 56.9587C162.125 58.1876 162.134 59.4184 162.156 60.6479C162.164 61.0567 162.084 61.2255 161.619 61.2239C156.534 61.207 151.449 61.2073 146.364 61.2236C145.909 61.2251 145.783 61.0745 145.822 60.6542C145.852 60.3258 145.883 59.9815 145.819 59.6632C145.424 57.6995 146.486 56.5219 147.928 55.4544C148.831 54.7868 149.548 53.8879 150.397 53.1366C151.79 51.9031 153.107 50.5818 154.426 49.2673C155.03 48.6658 155.401 47.9329 155.488 47.0484C155.632 45.5744 154.731 44.9474 153.556 44.779C151.939 44.5475 150.543 45.1102 149.543 46.4311C149.28 46.7793 149.097 46.7606 148.8 46.5931C147.623 45.9319 146.453 45.2601 145.267 44.6168C144.827 44.378 144.789 44.1239 145.069 43.7342C146.501 41.7379 148.458 40.5439 150.839 40.0881C153.014 39.6718 155.179 39.7219 157.307 40.475C160.879 41.7397 162.15 44.6007 161.4 48.0767C161.114 49.4046 160.428 50.5302 159.462 51.4895C159.199 51.7517 158.98 52.0592 158.704 52.3812Z" fill="#EFE9DF"/>
<path d="M173.785 44.3257C173.785 49.7609 173.775 55.1252 173.799 60.4893C173.802 61.0776 173.653 61.2449 173.061 61.2286C171.503 61.1854 169.942 61.2009 168.383 61.2226C167.964 61.2284 167.813 61.1329 167.814 60.6784C167.829 54.0381 167.829 47.3978 167.815 40.7575C167.815 40.3221 167.933 40.1933 168.371 40.2002C169.977 40.2252 171.585 40.2329 173.191 40.1971C173.723 40.1853 173.807 40.3891 173.795 40.852C173.765 41.9856 173.785 43.1204 173.785 44.3257Z" fill="#EFE9DF"/>
<path fill-rule="evenodd" clip-rule="evenodd" d="M181.118 40.205C180.43 40.2077 179.737 40.2105 179.037 40.2105C178.783 40.2105 178.535 40.2121 178.292 40.2137C177.719 40.2175 177.172 40.2211 176.625 40.203C176.219 40.1896 176.045 40.269 176.046 40.7371C176.062 47.383 176.063 54.029 176.044 60.6749C176.042 61.2103 176.285 61.2212 176.683 61.2197C179.308 61.2095 181.933 61.2049 184.558 61.2179C186.224 61.2261 187.876 61.1707 189.515 60.7994C192.64 60.0912 195.098 58.4664 196.595 55.5985C197.727 53.4307 197.857 51.0799 197.484 48.6979C197.01 45.6743 195.413 43.4288 192.762 41.8967C190.57 40.63 188.175 40.2594 185.706 40.2182C184.185 40.1928 182.664 40.1988 181.118 40.205ZM187.081 56.2429C188.364 55.9998 189.512 55.4997 190.354 54.3706C191.428 53.1631 191.56 51.7505 191.533 50.2705C191.487 47.7236 189.81 45.9193 187.624 45.3367C186.322 44.9897 184.985 45.0077 183.649 45.0258C183.268 45.0309 182.888 45.0361 182.508 45.0327C182.157 45.0297 182.158 45.2342 182.158 45.4716L182.158 45.4968C182.159 46.0229 182.159 46.549 182.159 47.0751C182.161 50.0235 182.163 52.9719 182.152 55.9203C182.15 56.3018 182.28 56.4085 182.642 56.3942C183.152 56.3741 183.663 56.383 184.174 56.3918C185.146 56.4087 186.118 56.4255 187.081 56.2429Z" fill="#EFE9DF"/>
<path fill-rule="evenodd" clip-rule="evenodd" d="M58.706 39.8682C58.7205 39.2135 58.5336 38.9606 57.8226 39.0747C57.4009 39.0747 56.9845 39.0759 56.572 39.077C55.506 39.0799 54.4657 39.0828 53.4258 39.0657C53.0008 39.0587 52.8601 39.1651 52.861 39.6144C52.8751 46.6387 52.8756 53.6631 52.8604 60.6874C52.8593 61.1555 53.034 61.2283 53.4389 61.2217C54.3591 61.2066 55.2795 61.2093 56.2 61.2119C56.5567 61.213 56.9135 61.214 57.2702 61.214C58.3806 61.214 58.3806 61.214 58.416 60.1244L58.4161 60.1227C58.4168 60.102 58.4356 60.0819 58.4597 60.0562C58.4727 60.0423 58.4873 60.0267 58.5014 60.0085C58.7911 60.117 59.0383 60.294 59.2882 60.473C59.5586 60.6666 59.8321 60.8625 60.1656 60.9758C61.806 61.5328 63.4437 61.6511 65.1065 61.2072C67.7407 60.504 69.5752 58.8951 70.4686 56.289C70.9657 54.839 71.1121 53.37 70.9216 51.8205C70.6399 49.5284 69.7727 47.5923 67.888 46.2353C65.3992 44.4434 62.6881 44.2309 59.865 45.3744C59.6025 45.4807 59.3597 45.6359 59.0959 45.8045C58.967 45.8869 58.8331 45.9724 58.6895 46.0571C58.6895 45.457 58.6872 44.8644 58.685 44.2773C58.6792 42.7838 58.6736 41.3255 58.706 39.8682ZM64.1774 55.8348C65.2469 54.6538 65.5989 51.9951 64.2654 50.398C62.7325 48.7075 60.0677 49.038 59.0445 50.8969C58.2828 52.2807 58.2967 53.8018 59.0338 55.1995C60.033 57.0941 62.7994 57.3565 64.1774 55.8348Z" fill="#EFE9DF"/>
<path fill-rule="evenodd" clip-rule="evenodd" d="M107.515 52.777C107.418 50.0092 106.451 47.6954 104.098 46.027C100.96 44.1592 97.9094 44.1922 94.878 46.1699C94.878 46.1217 94.8759 46.0706 94.8738 46.0176C94.8687 45.8954 94.8633 45.7634 94.8823 45.635C94.9661 45.0709 94.7962 44.8531 94.1713 44.8766C92.7782 44.929 91.3813 44.9098 89.9867 44.8835C89.5254 44.8748 89.3297 44.9532 89.3311 45.4859C89.3494 52.4379 89.3471 59.39 89.3342 66.3421C89.3334 66.7768 89.4498 66.908 89.8894 66.9003C91.3787 66.8741 92.8697 66.8591 94.358 66.9051C94.9913 66.9246 95.1949 66.7689 95.1792 66.1025C95.145 64.6568 95.1509 63.2101 95.157 61.7034C95.1594 61.1036 95.1619 60.4944 95.1619 59.8719C95.5251 60.246 95.8021 60.4815 96.1356 60.6467C97.6191 61.3814 99.1472 61.626 100.808 61.3766C102.858 61.069 104.536 60.1625 105.783 58.5479C107.084 56.8647 107.59 54.9056 107.515 52.777ZM95.1326 52.2442C94.6205 54.7531 96.3679 57.1302 98.7943 56.8133C99.5757 56.6571 100.26 56.376 100.738 55.825C101.87 54.5203 102.024 52.3496 101.117 50.8569C100.457 49.7725 98.9956 49.0707 97.7703 49.391C96.2302 49.7935 95.4471 50.7031 95.1326 52.2442Z" fill="#EFE9DF"/>
<path fill-rule="evenodd" clip-rule="evenodd" d="M73.7515 60.3663C75.1661 61.3257 76.774 61.5113 78.4882 61.461C80.0908 61.3315 81.4301 60.788 82.5312 59.3925C82.5312 59.5726 82.5346 59.7266 82.5376 59.8632C82.5432 60.1216 82.5475 60.3179 82.5251 60.511C82.4632 61.0435 82.6173 61.2513 83.2059 61.2304C84.5523 61.1825 85.9028 61.1824 87.2492 61.2304C87.8383 61.2514 87.9499 61.0432 87.9336 60.511C87.8948 59.2455 87.9059 57.9796 87.9169 56.7135C87.9336 54.7951 87.9503 52.8763 87.7938 50.9579C87.5696 48.2103 86.2328 46.2632 83.7187 45.3236C81.4288 44.4678 79.0506 44.6215 76.7065 44.9388C75.4339 45.1111 74.1741 45.5197 73.0267 46.1694C72.6153 46.4024 72.3593 46.5788 72.6402 47.1745C72.8442 47.6069 73.0581 48.0344 73.2719 48.4618C73.5583 49.0343 73.8447 49.6066 74.1069 50.1902C74.2782 50.5714 74.4546 50.5397 74.7264 50.352C76.1533 49.3666 77.7605 49.0381 79.4524 49.166C80.677 49.2586 81.8191 49.9376 82.017 51.2092C82.0699 51.5487 82.0011 51.565 81.7467 51.5646C81.477 51.5641 81.2073 51.5655 80.9377 51.5668C80.4268 51.5693 79.9159 51.5718 79.4052 51.5621C77.8557 51.5329 76.3203 51.5972 74.8403 52.1264C73.1526 52.7299 71.9906 53.8288 71.7614 55.6602C71.5208 57.5825 72.0775 59.2308 73.7515 60.3663ZM78.4858 57.6261C79.4175 57.8662 80.3214 57.8201 81.1549 57.1451C81.9522 56.5948 82.1467 55.8419 82.1066 54.9806C82.094 54.7097 81.9384 54.6866 81.7324 54.6871C81.4254 54.6878 81.1182 54.6847 80.811 54.6815C80.1487 54.6747 79.4863 54.6678 78.8259 54.7005C78.0506 54.7388 77.3865 55.3888 77.2937 56.0801C77.2191 56.6354 77.8148 57.4531 78.4858 57.6261Z" fill="#EFE9DF"/>
<path fill-rule="evenodd" clip-rule="evenodd" d="M111.281 50.175C112.746 49.272 114.367 48.9035 116.158 49.2791C117.168 49.48 117.867 49.926 118.196 50.9207C118.379 51.4762 118.25 51.5617 117.736 51.5711C117.224 51.5804 116.712 51.5727 116.201 51.5649C115.065 51.5477 113.929 51.5305 112.796 51.6999C110.747 52.0062 108.371 53.0191 108.023 55.617C107.724 57.8585 108.663 59.907 110.708 60.7722C112.914 61.7051 115.142 61.8632 117.356 60.6683C117.835 60.4098 118.179 60.0427 118.604 59.5879C118.643 59.547 118.682 59.5053 118.721 59.463C118.721 59.6252 118.724 59.7717 118.726 59.9074C118.73 60.1838 118.734 60.4157 118.716 60.6459C118.683 61.0525 118.779 61.2345 119.248 61.2246C120.595 61.1964 121.942 61.2058 123.29 61.2152C123.408 61.216 123.527 61.2168 123.646 61.2176C123.953 61.2197 124.129 61.1727 124.119 60.8001C124.084 59.5103 124.104 58.2193 124.125 56.9283C124.16 54.75 124.195 52.5721 123.96 50.4015C123.685 47.8715 122.252 46.2037 119.869 45.3013C118.435 44.758 116.958 44.7523 115.469 44.7466C115.39 44.7463 115.311 44.746 115.232 44.7456C113.014 44.7349 110.957 45.3111 109 46.3249C108.641 46.5111 108.596 46.6823 108.781 47.0309C108.825 47.1126 108.868 47.1943 108.912 47.276C109.362 48.1218 109.813 48.9699 110.186 49.8499C110.459 50.4934 110.647 50.5659 111.281 50.175ZM114.742 57.6474C115.422 57.7933 116.109 57.8103 116.826 57.521C117.835 56.9901 118.424 56.261 118.304 55.0942C118.275 54.8035 118.212 54.6751 117.898 54.6804C117.53 54.6867 117.161 54.6836 116.793 54.6805C116.265 54.6761 115.738 54.6717 115.211 54.6948C114.352 54.7323 113.679 55.3138 113.613 55.9885C113.545 56.6861 114.079 57.5052 114.742 57.6474Z" fill="#EFE9DF"/>
</svg>
