<svg width="250" height="100" viewBox="0 0 250 100" fill="none" xmlns="http://www.w3.org/2000/svg">
<g clip-path="url(#clip0_1251_4281)">
<path d="M42.2441 60.1417H42.6328V43.0616H42.2441V60.1417Z" fill="#EFE9DF"/>
<path d="M56.9065 43.9114C55.6039 44.9946 55.4427 45.1761 54.4719 46.6222C53.4956 45.1761 53.3345 44.9946 52.0332 43.9114C53.3345 42.8295 53.4956 42.6494 54.4719 41.2033C55.4454 42.6494 55.6039 42.8295 56.9065 43.9114Z" fill="#EFE9DF"/>
<path d="M57.0577 60.5515C56.8126 60.389 56.6528 60.1845 56.5445 59.9827C56.4579 59.8541 56.4118 59.6767 56.3793 59.5102C56.3224 59.2285 56.3509 59.0132 56.3509 59.0132V46.9296L52.1113 50.4867C52.5257 50.9227 52.5852 51.4576 52.5893 51.6648C52.5934 51.7189 52.5893 51.7541 52.5893 51.7541V59.3707C52.5893 61.7038 54.2386 62.917 54.2386 62.917L57.0577 60.5515Z" fill="#EFE9DF"/>
<path d="M88.5084 43.9114C87.2112 44.9946 87.0474 45.1761 86.0711 46.6222C85.1002 45.1761 84.9364 44.9946 83.6338 43.9114C84.9364 42.8295 85.1002 42.6494 86.0711 41.2033C87.0474 42.6494 87.2112 42.8295 88.5084 43.9114Z" fill="#EFE9DF"/>
<path d="M88.6602 60.5515C88.4192 60.389 88.2554 60.1845 88.1484 59.9827C88.0604 59.8541 88.0103 59.6767 87.9846 59.5102C87.9318 59.2285 87.9507 59.0132 87.9507 59.0132V46.9296L83.7139 50.4867C84.1269 50.9227 84.1878 51.4576 84.1959 51.6648C84.1973 51.7189 84.1959 51.7541 84.1959 51.7541V59.3707C84.1959 61.7038 85.8438 62.917 85.8438 62.917L88.6602 60.5515Z" fill="#EFE9DF"/>
<path d="M62.5642 49.8106C62.5642 49.8106 62.8526 51.0482 64.4883 51.0482C64.4883 51.0482 65.4415 51.0847 66.4787 50.0381L68.3311 48.1803C67.4699 48.6285 66.6318 48.6501 66.0712 48.5851C65.91 48.573 65.6771 48.5391 65.405 48.443C65.3901 48.4389 65.3779 48.4348 65.3779 48.4348H65.3806C64.9202 48.2683 64.3705 47.9271 63.9385 47.2121L60.2758 50.2926C60.2758 50.2926 59.3754 51.1091 59.3754 52.4903C59.3754 52.4903 59.2318 54.8707 62.2893 56.3453C62.2893 56.3453 63.9846 57.1563 65.0096 57.8672C65.0096 57.8672 65.6799 58.31 65.6799 59.0588C65.6799 59.0588 65.7286 60.2003 64.4274 60.2003C64.4274 60.2003 62.3123 60.3208 62.2541 57.1794L58.8486 60.0012C58.8486 60.0012 59.6394 62.8935 62.3597 62.8935C62.3597 62.8935 65.1328 62.9707 67.2573 60.0825C67.2573 60.0825 68.3162 58.7027 68.3162 57.3364C68.3162 57.3364 68.4976 54.9885 65.3887 53.6236C65.3887 53.6236 64.0333 53.0739 62.8011 52.191C62.8011 52.191 62.0239 51.7279 62.0239 50.8586C62.0239 50.8586 61.9427 50.3454 62.5642 49.8106Z" fill="#EFE9DF"/>
<path d="M94.2345 49.8096C94.2345 49.8096 94.5229 51.0472 96.1586 51.0472C96.1586 51.0472 97.1133 51.0838 98.1545 50.0371L100.003 48.1793C99.1403 48.6275 98.3035 48.6492 97.7443 48.5842C97.5804 48.572 97.3489 48.5381 97.0767 48.442C97.0618 48.4379 97.051 48.4339 97.051 48.4339C96.5919 48.2673 96.0395 47.9261 95.6116 47.2112L91.9462 50.2916C91.9462 50.2916 91.0457 51.1081 91.0457 52.4893C91.0457 52.4893 90.9022 54.8697 93.9637 56.3443C93.9637 56.3443 95.6563 57.1554 96.684 57.8662C96.684 57.8662 97.3529 58.309 97.3529 59.0578C97.3529 59.0578 97.399 60.1993 96.0977 60.1993C96.0977 60.1993 93.984 60.3198 93.9245 57.1784L90.5244 60.0002C90.5244 60.0002 91.3098 62.8925 94.0314 62.8925C94.0314 62.8925 96.8018 62.9697 98.9277 60.0815C98.9277 60.0815 99.9893 58.7017 99.9893 57.3354C99.9893 57.3354 100.168 54.9875 97.0564 53.6226C97.0564 53.6226 95.7037 53.0729 94.4756 52.19C94.4756 52.19 93.6997 51.7269 93.6997 50.8576C93.6997 50.8576 93.6144 50.3444 94.2345 49.8096Z" fill="#EFE9DF"/>
<path d="M33.4035 48.1172C33.4035 48.1172 33.2843 48.0996 33.1002 48.0996C32.476 48.0996 30.4395 48.3298 30.4395 51.2911C30.4422 51.3453 30.4963 52.6465 30.9445 53.8218L31.1178 54.2687L31.1964 53.7975C31.2072 53.7338 31.478 52.2268 32.9214 52.2268C33.0447 52.2268 33.1774 52.2376 33.3128 52.2606L33.4631 52.2863L33.5186 48.1334L33.4035 48.1172Z" fill="#EFE9DF"/>
<path d="M43.2828 42.8633L42.4636 43.6798L41.6484 42.8633L42.4636 42.0441L43.2828 42.8633Z" fill="#EFE9DF"/>
<path d="M79.6645 48.4545L78.1601 46.9434L74.5055 49.9779C74.5055 47.6705 73.2029 46.9312 73.2029 46.9312L70.0967 49.4782C70.4379 49.8655 70.5381 50.2785 70.5679 50.5276C70.5896 50.6603 70.5774 50.7686 70.5774 50.7686V59.1638C70.5774 61.8462 72.1995 62.8996 72.1995 62.8996L75.1378 60.5043C74.8088 60.2795 74.649 60.0263 74.5705 59.8246C74.5177 59.7135 74.4987 59.5903 74.4947 59.5172C74.492 59.4752 74.492 59.4481 74.492 59.4481V50.9744C75.2394 50.4044 75.8772 50.4355 75.8772 50.4355C77.2312 50.4355 77.1987 51.531 77.1987 51.531V59.0676V63.3126C77.1987 63.3126 80.9752 61.9626 80.9752 59.0676V51.596C80.9752 49.7274 79.6645 48.4545 79.6645 48.4545Z" fill="#EFE9DF"/>
<path d="M36.4545 44.6767C36.4545 44.6767 36.4545 44.6008 36.4612 44.4749C36.4612 44.4627 36.464 44.4492 36.464 44.4383C36.4802 44.0281 36.5628 43.1777 36.862 42.5224C35.2196 43.5812 33.9197 44.9217 33.9061 44.9366C32.9637 45.9116 33.0016 46.9799 33.007 47.0192V56.981C33.007 58.4704 32.441 59.0716 32.4289 59.0811L32.001 59.5117L32.571 59.2964C36.5939 57.7677 36.4572 54.4015 36.4545 54.3758V44.6767Z" fill="#EFE9DF"/>
<path d="M43.8072 48.2462H43.7138C48.0508 45.4 48.0088 41.4935 48.0088 41.4556C48.0088 37.0577 44.5939 37.0076 44.5587 37.0076C43.0259 37.0076 42.1119 37.9391 42.0821 37.9703L38.4505 41.1699C37.2644 42.5267 37.4309 44.0094 37.4364 44.0554V54.2271C37.4364 56.3245 36.6375 57.1126 36.632 57.118L36.1987 57.527L36.762 57.3374C41.0409 55.9048 40.9122 52.2637 40.9122 52.2339V41.5721C40.9122 40.5389 41.1912 39.7807 41.7192 39.3758C42.1227 39.0657 42.5303 39.063 42.5493 39.063C42.9528 39.063 43.3048 39.212 43.596 39.5058C44.6142 40.5281 44.6115 42.9668 44.6115 42.9925C44.6115 47.5584 42.4315 48.2909 42.4112 48.299L42.3177 48.3261V48.8664L42.441 48.8759C46.2052 49.1616 46.2052 53.3497 46.2052 53.5284C46.2052 58.0713 43.5865 59.3766 43.1613 59.5594C41.5527 58.491 39.9468 57.9521 38.3801 57.9521C34.6213 57.9521 32.0445 61.0881 31.1143 62.43C32.2056 61.9168 33.2225 61.669 33.9551 61.5472C34.2164 61.4957 34.4791 61.4673 34.7445 61.4537C34.9544 61.4361 35.0749 61.4348 35.0749 61.4348C35.9631 61.4348 36.8798 61.6419 37.8087 62.0441L37.8399 62.059C38.3679 62.3108 39.0165 62.4368 39.7721 62.4368C41.9833 62.4368 44.3759 61.3779 44.4707 61.3332C48.4597 59.7124 49.6405 56.2609 49.6513 56.2216C49.6797 56.1309 49.696 56.0754 49.696 56.07C50.0629 54.7742 50.067 53.5298 50.067 53.4797C50.067 48.624 45.2791 48.2462 43.8072 48.2462Z" fill="#EFE9DF"/>
<path d="M38.395 38.4091C38.2758 38.4335 38.1499 38.447 38.0213 38.4538C37.9631 38.4592 37.9238 38.4592 37.9238 38.4592C37.9238 38.4592 37.9008 38.4619 37.8764 38.4619C37.7369 38.4619 37.2129 38.4132 36.3314 37.7862C36.2732 37.7416 34.8636 36.6651 33.7438 36.6651C33.7438 36.6651 33.7181 36.6624 33.6707 36.6624C33.2916 36.6624 31.9822 36.7612 30.8461 38.0313C30.8069 38.076 29.9538 39.1362 29.4555 40.4334L29.4189 40.5228C30.5753 39.6697 31.4947 39.7402 31.4947 39.7402C31.4947 39.7402 32.2787 39.7469 33.0803 40.382C33.1277 40.4226 34.2963 41.3826 35.3849 41.3826C35.3849 41.3826 35.4391 41.3907 35.5379 41.3907C36.1283 41.3907 38.1973 41.1226 40.158 37.7307C39.5134 38.1627 38.8337 38.3401 38.395 38.4091Z" fill="#EFE9DF"/>
<path d="M206.876 43.9111C205.578 44.9944 205.415 45.1758 204.44 46.6219C203.464 45.1758 203.3 44.9944 202.003 43.9111C203.3 42.8292 203.464 42.6491 204.44 41.203C205.415 42.6491 205.578 42.8292 206.876 43.9111Z" fill="#EFE9DF"/>
<path d="M207.025 60.551C206.78 60.3885 206.617 60.184 206.51 59.9823C206.425 59.8536 206.374 59.6762 206.348 59.5097C206.292 59.228 206.317 59.0128 206.317 59.0128V46.9291L202.077 50.4862C202.489 50.9223 202.551 51.4571 202.559 51.6643C202.562 51.7184 202.559 51.7536 202.559 51.7536V59.3702C202.559 61.7033 204.206 62.9165 204.206 62.9165L207.025 60.551Z" fill="#EFE9DF"/>
<path d="M194.439 49.8124C194.439 49.8124 194.726 51.05 196.36 51.05C196.36 51.05 197.316 51.0866 198.355 50.0399L200.207 48.1821C199.346 48.6303 198.508 48.652 197.946 48.587C197.786 48.5748 197.55 48.5409 197.277 48.4448C197.266 48.4407 197.254 48.4367 197.254 48.4367C196.796 48.2701 196.244 47.9289 195.813 47.214L192.152 50.2944C192.152 50.2944 191.251 51.1109 191.251 52.4921C191.251 52.4921 191.108 54.8725 194.165 56.3471C194.165 56.3471 195.861 57.1582 196.886 57.869C196.886 57.869 197.557 58.3118 197.557 59.0606C197.557 59.0606 197.606 60.2021 196.305 60.2021C196.305 60.2021 194.188 60.3226 194.129 57.1812L190.725 60.003C190.725 60.003 191.511 62.8953 194.236 62.8953C194.236 62.8953 197.006 62.9725 199.133 60.0843C199.133 60.0843 200.191 58.7045 200.191 57.3383C200.191 57.3383 200.374 54.9903 197.263 53.6254C197.263 53.6254 195.909 53.0757 194.678 52.1928C194.678 52.1928 193.901 51.7297 193.901 50.8604C193.901 50.8604 193.819 50.3473 194.439 49.8124Z" fill="#EFE9DF"/>
<path d="M150.84 60.0614C150.763 59.9003 150.769 59.727 150.769 59.727V43.5405C150.769 41.3036 149.637 40.5982 149.637 40.5982L146.423 43.1682C147.101 43.7071 147.036 44.2934 147.036 44.2934V48.7523C146.432 47.929 144.982 47.0245 144.982 47.0245L139.589 51.5132C140.026 51.9019 139.973 52.2526 139.973 52.2526V57.8001C139.973 61.3694 143.283 63.0606 143.283 63.0606L147.021 59.9896C147.021 61.8149 148.642 63.0782 148.642 63.0782L151.372 60.8427C151.06 60.5624 150.912 60.2753 150.84 60.0614ZM145.331 59.7026C143.701 59.7026 143.74 58.1942 143.74 58.1942V50.4192L143.946 50.2133C145.331 51.1341 146.27 52.4516 146.27 52.4516C147.002 53.4198 147.021 54.5937 147.021 54.5937V58.8888C146.136 59.7567 145.331 59.7026 145.331 59.7026Z" fill="#EFE9DF"/>
<path d="M162.116 48.6911L159.204 46.8739L153.599 51.5238C153.823 51.7269 153.88 52.0085 153.894 52.1534V52.1548C153.902 52.2076 153.902 52.2455 153.902 52.2455V57.6103C153.902 57.6103 153.68 59.9433 155.892 61.1796C155.892 61.1796 157.47 62.1166 158.916 63.0685L163.376 59.3381C163.376 59.3381 164.201 58.6407 164.201 57.0389V52.167C164.201 52.167 164.315 50.0086 162.116 48.6911ZM160.121 60.3455C160.121 60.3455 159.085 59.9785 158.211 59.0131C158.211 59.0131 157.624 58.4891 157.624 57.1919V50.7289C157.624 50.7289 157.58 50.1481 158.022 49.7188L159.586 50.8251C159.586 50.8251 160.41 51.4331 160.41 52.4324V59.1553C160.41 59.1553 160.468 59.9189 160.121 60.3455Z" fill="#EFE9DF"/>
<path d="M220.063 59.8209C220 59.7261 219.947 59.5826 219.918 59.3714C219.892 59.2048 219.901 59.0924 219.901 59.0924V50.9166C219.901 50.9166 219.961 48.1544 217.432 46.7516C217.432 46.7516 213.719 46.8138 210.298 50.0676V51.4312C210.298 51.4312 211.888 49.4488 214.07 48.6716C214.07 48.6716 216.204 49.0521 216.204 51.7643V52.4697L212.415 53.6762C212.415 53.6762 208.951 54.6295 208.951 57.89C208.951 57.89 208.928 61.2467 212.607 62.747L216.204 59.8304C216.286 60.7187 216.629 61.9603 217.762 62.7944L220.58 60.4235C220.32 60.2393 220.161 60.0227 220.063 59.8209ZM216.204 58.7417C215.824 59.1033 215.065 59.7221 214.255 59.7221C214.255 59.7221 212.985 59.867 212.985 58.2245V55.8576C212.985 55.8576 212.97 54.7161 214.26 54.1298L216.204 53.247V58.7417Z" fill="#EFE9DF"/>
<path d="M116.315 47.6132L116.192 47.6065C116.192 47.6065 116.157 47.6038 116.084 47.6038C115.584 47.6038 113.095 47.7541 113.101 50.7289C113.101 50.7872 113.172 52.0979 113.644 53.1053L113.824 53.4912L113.887 53.0687C113.898 53.0105 114.136 51.6213 115.597 51.6213C115.775 51.6213 115.962 51.6416 116.159 51.6835L116.315 51.7133V47.6132Z" fill="#EFE9DF"/>
<path d="M135.637 48.4555L134.134 46.9444L130.479 49.9788C130.479 47.6715 129.178 46.9322 129.178 46.9322L126.07 49.4792C126.413 49.8664 126.516 50.2794 126.544 50.5286C126.559 50.6613 126.552 50.7696 126.552 50.7696V59.1648C126.552 61.8472 128.176 62.9006 128.176 62.9006L131.113 60.5053C130.785 60.2805 130.625 60.0273 130.544 59.8255C130.494 59.7145 130.478 59.5913 130.47 59.5182C130.468 59.4762 130.468 59.4491 130.468 59.4491V50.9754C131.218 50.4054 131.855 50.4365 131.855 50.4365C133.206 50.4365 133.174 51.5319 133.174 51.5319V59.0686V63.3136C133.174 63.3136 136.952 61.9636 136.952 59.0686V51.5969C136.952 49.7283 135.637 48.4555 135.637 48.4555Z" fill="#EFE9DF"/>
<path d="M176.119 48.4549L174.616 46.9438L170.96 49.9782C170.96 47.6709 169.66 46.9316 169.66 46.9316L166.551 49.4786C166.892 49.8658 166.995 50.2788 167.025 50.528C167.042 50.6607 167.034 50.769 167.034 50.769V59.1642C167.034 61.8465 168.658 62.9 168.658 62.9L171.593 60.5047C171.267 60.2799 171.104 60.0267 171.026 59.8249C170.973 59.7139 170.954 59.5907 170.951 59.5176C170.947 59.4756 170.947 59.4485 170.947 59.4485V50.9748C171.693 50.4048 172.331 50.4359 172.331 50.4359C173.685 50.4359 173.656 51.5313 173.656 51.5313V59.068V63.313C173.656 63.313 177.431 61.963 177.431 59.068V51.5963C177.431 49.7277 176.119 48.4549 176.119 48.4549Z" fill="#EFE9DF"/>
<path d="M186.116 59.7673C184.484 59.7673 184.127 58.6475 184.055 57.9813C186.239 56.5785 187.919 54.825 187.919 54.825C188.923 53.7878 188.92 52.4824 188.92 52.4824C188.92 51.3003 187.915 50.1981 187.915 50.1981C186.45 48.515 184.706 47.0635 184.706 47.0635L180.054 50.7425C180.215 50.9578 180.266 51.1866 180.281 51.322C180.296 51.3911 180.291 51.4439 180.291 51.4439V57.6238C180.291 59.6021 181.31 60.7205 181.31 60.7205C182.502 62.1301 184.04 63.0698 184.04 63.0698L188.856 59.1552C187.89 59.594 186.851 59.7185 186.379 59.7524C186.215 59.7754 186.116 59.7673 186.116 59.7673ZM184.052 51.2773C185.972 52.6801 185.888 54.2657 185.888 54.2657C185.888 55.6821 184.605 56.6692 184.052 57.0294V51.2773Z" fill="#EFE9DF"/>
<path d="M120.886 38.409C120.77 38.4334 120.645 38.4469 120.515 38.4537C120.453 38.4591 120.413 38.4591 120.413 38.4591C120.413 38.4591 120.397 38.4618 120.369 38.4618C120.228 38.4618 119.701 38.4131 118.822 37.7861C118.763 37.7414 117.355 36.665 116.235 36.665C116.235 36.665 116.209 36.6623 116.164 36.6623C115.785 36.6623 114.475 36.7611 113.333 38.0312C113.302 38.0759 112.446 39.1361 111.947 40.4333L111.914 40.5227C113.066 39.6696 113.986 39.74 113.986 39.74C113.991 39.74 114.771 39.7468 115.571 40.3819C115.62 40.4225 116.789 41.3825 117.876 41.3825C117.876 41.3825 117.93 41.3906 118.029 41.3906C118.622 41.3906 120.688 41.1225 122.648 37.7306C122.005 38.1626 121.325 38.3399 120.886 38.409Z" fill="#EFE9DF"/>
<path d="M119.205 44.711C119.205 44.3982 119.226 44.1166 119.26 43.8674C119.312 43.361 119.406 42.7151 119.583 42.1694L119.573 42.1721C117.677 43.2716 116.422 44.9818 116.407 45.0062C115.761 45.9919 115.787 47.2187 115.787 47.2702V54.6904C115.787 55.9808 115.262 56.6254 115.255 56.6308L114.939 57.0059L115.398 56.838C119.26 55.4257 119.206 52.2897 119.205 52.2585V44.711Z" fill="#EFE9DF"/>
<path d="M123.686 56.6981V42.7513C123.686 42.7513 123.558 39.5964 125.475 37.3635C123.357 38.8787 121.311 40.8353 121.292 40.8556C120.062 42.0553 120.2 43.5164 120.205 43.5638V58.2065C120.205 59.7014 119.171 60.1415 119.122 60.1618C118.88 60.2728 118.634 60.327 118.387 60.327C117.516 60.327 116.888 59.6446 116.884 59.6378L115.676 58.2729C114.45 56.8769 113.027 56.8322 112.863 56.8322C111.991 56.8322 111.256 57.1382 110.673 57.7353C109.328 59.1246 109.201 61.6662 109.195 62.4285C109.945 61.4603 110.736 61.1367 111.209 61.0298C111.369 60.9946 111.499 60.9797 111.585 60.9783C111.622 60.9783 111.641 60.9783 111.641 60.9783C111.666 60.9783 111.68 60.9783 111.692 60.9797C112.575 60.9797 113.145 61.4671 113.163 61.4793L113.757 61.9058C116.024 63.5578 118.939 62.3838 119.627 62.0697C120.626 61.5687 121.389 61.0054 121.9 60.5599C122.104 60.3988 122.296 60.216 122.48 60.0034L122.879 59.5701C123.875 58.1632 123.691 56.7618 123.686 56.6981Z" fill="#EFE9DF"/>
</g>
<defs>
<clipPath id="clip0_1251_4281">
<rect width="192.247" height="27.738" fill="white" transform="translate(28.876 36.131)"/>
</clipPath>
</defs>
</svg>
