<svg width="250" height="100" viewBox="0 0 250 100" fill="none" xmlns="http://www.w3.org/2000/svg">
<g clip-path="url(#clip0_1251_4267)">
<path d="M76.1564 54.6528C74.6749 56.1256 72.4526 56.9246 70.483 56.9246C64.9049 56.9246 62.7466 53.0498 62.7155 49.3348C62.6826 45.5886 65.0364 41.5524 70.483 41.5524C72.4526 41.5524 74.4499 42.2262 75.9314 43.6677L78.7681 40.9462C76.4489 38.671 73.5482 37.5178 70.483 37.5178C62.3278 37.5178 58.4925 43.4732 58.5236 49.3366C58.5565 55.1669 62.1028 60.9 70.483 60.9C73.7403 60.9 76.7379 59.8423 79.0588 57.5689L76.1564 54.6528Z" fill="#EFE9DF"/>
<path d="M90.072 37.9641L79.916 60.3841H84.5405L86.4807 56.1568H98.3155L100.224 60.3841H104.882L94.7277 37.9641H90.072ZM88.1941 52.2161L92.3981 42.6725L96.6055 52.2161H88.1941Z" fill="#EFE9DF"/>
<path d="M117.935 37.9327C114.345 37.9327 110.754 37.964 107.166 37.964V60.3858H111.472V53.7878H117.933C129.131 53.786 129.098 37.9327 117.935 37.9327ZM117.935 49.9113H111.474V41.9673H117.935C123.419 41.9673 123.454 49.9113 117.935 49.9113Z" fill="#EFE9DF"/>
<path d="M138.268 46.6777C135.51 46.3564 133.144 45.8111 133.144 43.8589C133.144 42.1934 134.687 40.8804 137.905 40.8804C140.404 40.8804 142.574 42.0961 143.358 43.3778L146.81 41.6497C145.068 38.1901 141.356 37.1967 137.777 37.1967C133.538 37.2314 128.87 39.1193 128.87 43.7304C128.87 48.7584 133.209 49.9776 137.905 50.5212C140.96 50.8408 143.229 51.7057 143.229 53.8193C143.229 56.2543 140.667 57.1835 137.939 57.1835C135.146 57.1835 132.486 56.0945 131.468 53.63L127.854 55.4554C129.564 59.5542 133.177 60.9644 137.874 60.9644C143 60.9644 147.533 58.8178 147.533 53.8193C147.531 48.4701 143.062 47.2526 138.268 46.6777Z" fill="#EFE9DF"/>
<path d="M164.836 50.842C164.836 54.6837 162.881 57.0231 159.442 57.0231C155.999 57.0231 153.728 54.8765 153.728 50.842V38.0002H149.594V50.842C149.594 57.598 154.107 60.8649 159.409 60.8649C164.964 60.8649 168.973 57.4712 168.973 50.842V38.0002H164.836V50.842V50.842Z" fill="#EFE9DF"/>
<path d="M175.558 37.9641H171.238V60.3841H187.341V56.4764H175.558V37.9641Z" fill="#EFE9DF"/>
<path d="M206.498 41.4549L206.365 41.5887C206.055 41.8742 205.651 42.0339 205.23 42.0365C205.024 42.0532 204.818 42.0255 204.624 41.9552C204.43 41.8849 204.253 41.7737 204.106 41.6291C203.959 41.4845 203.845 41.31 203.771 41.1174C203.698 40.9247 203.666 40.7185 203.68 40.5127C203.668 40.0887 203.824 39.6771 204.113 39.3669C204.262 39.2263 204.437 39.1171 204.629 39.0462C204.821 38.9752 205.026 38.9438 205.23 38.954C205.635 38.9461 206.026 39.0988 206.318 39.3786L206.449 39.5065L207.354 38.6341L207.217 38.5003C206.957 38.2375 206.648 38.0291 206.307 37.8873C205.966 37.7455 205.6 37.6731 205.23 37.6744C204.851 37.6603 204.473 37.7226 204.118 37.8575C203.763 37.9923 203.439 38.1971 203.165 38.4596C202.637 39.0148 202.349 39.7557 202.365 40.5214C202.365 41.8097 203.124 43.3132 205.227 43.3132C205.603 43.3203 205.977 43.2527 206.327 43.1145C206.677 42.9762 206.997 42.7699 207.266 42.5076L207.4 42.3768L206.498 41.4549Z" fill="#EFE9DF"/>
<path d="M205.139 35.3463C204.121 35.3457 203.126 35.647 202.279 36.2119C201.433 36.7768 200.773 37.58 200.383 38.52C199.993 39.46 199.891 40.4944 200.089 41.4925C200.287 42.4906 200.777 43.4075 201.496 44.1272C202.216 44.847 203.133 45.3372 204.131 45.536C205.129 45.7347 206.164 45.633 207.105 45.2437C208.045 44.8544 208.849 44.1951 209.414 43.349C209.98 42.503 210.282 41.5083 210.282 40.4907C210.28 39.1273 209.738 37.8201 208.774 36.8558C207.81 35.8915 206.503 35.3486 205.139 35.3463V35.3463ZM208.938 40.4907C208.938 41.2425 208.715 41.9775 208.297 42.6026C207.879 43.2277 207.285 43.7149 206.59 44.0025C205.895 44.29 205.131 44.3651 204.393 44.2183C203.656 44.0714 202.978 43.7091 202.447 43.1772C201.915 42.6454 201.553 41.9679 201.407 41.2304C201.26 40.4929 201.336 39.7286 201.624 39.0341C201.913 38.3397 202.4 37.7463 203.026 37.329C203.652 36.9117 204.387 36.6893 205.139 36.6898C206.146 36.6921 207.112 37.0934 207.824 37.8058C208.536 38.5182 208.936 39.4836 208.938 40.4907" fill="#EFE9DF"/>
<path d="M189.325 35.4524V38.912H192.875V61.2018H189.325V64.7257H196.833V35.4524H189.325Z" fill="#EFE9DF"/>
<path d="M49.0459 64.7246H56.5521V61.2007H53.0006V38.8449H56.5521V35.387H49.0459V64.7246Z" fill="#EFE9DF"/>
</g>
<defs>
<clipPath id="clip0_1251_4267">
<rect width="170.563" height="29.3155" fill="white" transform="translate(39.7188 35.3423)"/>
</clipPath>
</defs>
</svg>
