<svg width="250" height="100" viewBox="0 0 250 100" fill="none" xmlns="http://www.w3.org/2000/svg">
<path d="M55.181 45.5274C55.181 44.0073 56.3527 42.8356 57.9361 42.8356C59.5196 42.8356 60.6913 44.0073 60.6913 45.5274V45.5908C60.6913 47.1109 59.5196 48.2826 57.9361 48.2826C56.3527 48.2826 55.181 47.1109 55.181 45.5908V45.5274ZM55.181 57.4348C55.181 55.9147 56.3527 54.743 57.9361 54.743C59.5196 54.743 60.6913 55.9147 60.6913 57.4348V57.4982C60.6913 59.0183 59.5196 60.19 57.9361 60.19C56.3527 60.19 55.181 59.0183 55.181 57.4982V57.4348ZM65.2801 57.5615V40.2704C65.2801 38.9087 66.3568 37.832 67.7185 37.832H73.9256C80.8927 37.832 85.7063 42.6139 85.7063 48.8526V48.916C85.7063 55.1547 80.8927 60 73.9256 60H67.7185C66.3568 60 65.2801 58.9233 65.2801 57.5615ZM70.157 55.5981H73.9256C77.9158 55.5981 80.6077 52.9062 80.6077 48.9793V48.916C80.6077 44.9891 77.9158 42.2339 73.9256 42.2339H70.157V55.5981ZM94.359 60.3167C91.1605 60.3167 88.532 58.4799 88.532 55.123V55.0597C88.532 51.3545 91.3505 49.6444 95.3724 49.6444C97.0825 49.6444 98.3176 49.9294 99.521 50.3411V50.0561C99.521 48.0609 98.2859 46.9525 95.8791 46.9525C94.549 46.9525 93.4723 47.1425 92.5539 47.4276C92.2689 47.5226 92.0789 47.5542 91.8572 47.5542C90.7488 47.5542 89.8621 46.6992 89.8621 45.5908C89.8621 44.7357 90.4005 44.0073 91.1605 43.7223C92.6806 43.1523 94.3274 42.8356 96.5758 42.8356C99.2043 42.8356 101.104 43.5323 102.308 44.7357C103.575 46.0025 104.145 47.8709 104.145 50.1511V57.8782C104.145 59.1766 103.1 60.19 101.801 60.19C100.408 60.19 99.4894 59.2083 99.4894 58.1949V58.1632C98.3176 59.4616 96.7025 60.3167 94.359 60.3167ZM95.8158 56.9915C98.0643 56.9915 99.5844 55.7564 99.5844 54.0146V53.1596C98.761 52.7796 97.6842 52.5262 96.5125 52.5262C94.454 52.5262 93.1873 53.3496 93.1873 54.8697V54.933C93.1873 56.2314 94.264 56.9915 95.8158 56.9915ZM115.887 65.1303C113.639 65.1303 111.675 64.7503 109.68 63.9586C108.857 63.6419 108.318 62.9769 108.318 62.0901C108.318 61.0134 109.205 60.1267 110.282 60.1267C110.599 60.1267 110.852 60.19 111.074 60.285C112.467 60.9184 113.955 61.2984 115.761 61.2984C119.054 61.2984 120.606 59.715 120.606 56.6748V55.8514C119.181 57.5615 117.629 58.6066 115.064 58.6066C111.105 58.6066 107.527 55.7247 107.527 50.6894V50.6261C107.527 45.5591 111.169 42.7089 115.064 42.7089C117.692 42.7089 119.244 43.8173 120.543 45.2424V45.2108C120.543 43.9123 121.619 42.8356 122.949 42.8356C124.279 42.8356 125.356 43.9123 125.356 45.2424V56.1681C125.356 59.2083 124.628 61.4251 123.203 62.8502C121.619 64.4336 119.181 65.1303 115.887 65.1303ZM116.457 54.6163C118.801 54.6163 120.606 53.0012 120.606 50.6894V50.6261C120.606 48.3143 118.801 46.6992 116.457 46.6992C114.114 46.6992 112.34 48.3143 112.34 50.6261V50.6894C112.34 53.0329 114.114 54.6163 116.457 54.6163ZM133.552 50.1827H140.804C140.519 48.0293 139.253 46.5725 137.226 46.5725C135.231 46.5725 133.932 47.9976 133.552 50.1827ZM143.591 58.3216C142.103 59.5883 140.171 60.38 137.701 60.38C132.602 60.38 128.834 56.8015 128.834 51.6078V51.5445C128.834 46.6992 132.285 42.7089 137.226 42.7089C142.894 42.7089 145.396 47.3642 145.396 50.8794C145.396 52.2729 144.415 53.1912 143.148 53.1912H133.616C134.091 55.3764 135.611 56.5165 137.764 56.5165C139.094 56.5165 140.203 56.1048 141.184 55.3764C141.533 55.123 141.849 54.9964 142.356 54.9964C143.433 54.9964 144.224 55.8197 144.224 56.8965C144.224 57.5298 143.939 58.0049 143.591 58.3216ZM149.3 57.7832V39.0987C149.3 37.7686 150.377 36.6919 151.707 36.6919C153.037 36.6919 154.114 37.7686 154.114 39.0987V57.7832C154.114 59.1133 153.037 60.19 151.707 60.19C150.377 60.19 149.3 59.1133 149.3 57.7832ZM163.449 60.3167C160.25 60.3167 157.622 58.4799 157.622 55.123V55.0597C157.622 51.3545 160.44 49.6444 164.462 49.6444C166.172 49.6444 167.407 49.9294 168.611 50.3411V50.0561C168.611 48.0609 167.376 46.9525 164.969 46.9525C163.639 46.9525 162.562 47.1425 161.643 47.4276C161.358 47.5226 161.168 47.5542 160.947 47.5542C159.838 47.5542 158.952 46.6992 158.952 45.5908C158.952 44.7357 159.49 44.0073 160.25 43.7223C161.77 43.1523 163.417 42.8356 165.665 42.8356C168.294 42.8356 170.194 43.5323 171.397 44.7357C172.664 46.0025 173.234 47.8709 173.234 50.1511V57.8782C173.234 59.1766 172.189 60.19 170.891 60.19C169.497 60.19 168.579 59.2083 168.579 58.1949V58.1632C167.407 59.4616 165.792 60.3167 163.449 60.3167ZM164.905 56.9915C167.154 56.9915 168.674 55.7564 168.674 54.0146V53.1596C167.851 52.7796 166.774 52.5262 165.602 52.5262C163.544 52.5262 162.277 53.3496 162.277 54.8697V54.933C162.277 56.2314 163.354 56.9915 164.905 56.9915ZM177.376 57.7832V45.2424C177.376 43.9123 178.453 42.8356 179.783 42.8356C181.113 42.8356 182.19 43.9123 182.19 45.2424V45.4324C183.298 44.0073 184.723 42.7089 187.162 42.7089C190.804 42.7089 192.926 45.1157 192.926 49.011V57.7832C192.926 59.1133 191.849 60.19 190.519 60.19C189.189 60.19 188.112 59.1133 188.112 57.7832V50.5311C188.112 48.2509 187.035 47.0792 185.199 47.0792C183.362 47.0792 182.19 48.2509 182.19 50.5311V57.7832C182.19 59.1133 181.113 60.19 179.783 60.19C178.453 60.19 177.376 59.1133 177.376 57.7832Z" fill="#EFE9DF"/>
</svg>
