<svg width="250" height="100" viewBox="0 0 250 100" fill="none" xmlns="http://www.w3.org/2000/svg">
<rect x="43.2871" y="33.2745" width="6.68994" height="6.68998" fill="#EFE9DF"/>
<rect x="43.2871" y="46.6564" width="6.68994" height="6.68998" fill="#EFE9DF"/>
<rect x="43.2871" y="60.0354" width="6.68994" height="6.68998" fill="#EFE9DF"/>
<rect x="56.666" y="33.2745" width="6.68994" height="6.68998" fill="#EFE9DF"/>
<rect x="56.666" y="46.6564" width="6.68994" height="6.68998" fill="#EFE9DF"/>
<rect x="56.666" y="60.0354" width="6.68994" height="6.68998" fill="#EFE9DF"/>
<rect x="96.8066" y="33.2745" width="6.68994" height="6.68998" fill="#EFE9DF"/>
<rect x="96.8076" y="46.6564" width="6.68994" height="6.68998" fill="#EFE9DF"/>
<rect x="70.0469" y="60.0354" width="6.68994" height="6.68998" fill="#EFE9DF"/>
<rect x="70.0469" y="33.2745" width="20.0698" height="6.68998" fill="#EFE9DF"/>
<rect x="70.0469" y="46.6564" width="20.0698" height="6.68998" fill="#EFE9DF"/>
<rect x="83.4258" y="60.0354" width="20.0698" height="6.68998" fill="#EFE9DF"/>
<rect x="126.434" y="39.9662" width="5.73424" height="21.0257" fill="#EFE9DF"/>
<rect x="176.131" y="39.9662" width="5.73424" height="21.0257" fill="#EFE9DF"/>
<path fill-rule="evenodd" clip-rule="evenodd" d="M198.111 39.9662H192.855L183.775 60.9918H189.51L190.943 57.169H199.545L200.978 60.9918H206.712L198.111 39.9662ZM195.244 46.1783L192.377 52.8683H198.111L195.244 46.1783Z" fill="#EFE9DF"/>
<path d="M135.035 39.9659H140.769L150.326 51.4345V39.9659H156.539V60.9916H150.326L140.769 48.5673V60.9916H135.035V39.9659Z" fill="#EFE9DF"/>
<path d="M158.927 39.9659H174.218V44.2666H164.661V49.0452H173.262V53.3459H164.661V60.9916H158.927V39.9659Z" fill="#EFE9DF"/>
</svg>
