<svg width="250" height="100" viewBox="0 0 250 100" fill="none" xmlns="http://www.w3.org/2000/svg">
<path d="M151.325 51.2671C153.799 51.2722 156.222 51.257 158.767 51.2798C157.922 53.9312 157.115 56.4583 156.293 59.0336C156.014 59.0158 155.78 59.0412 155.57 58.9803C154.35 58.6276 153.137 58.6759 151.909 58.9651C151.066 59.163 150.206 59.3152 149.344 59.4116C147.309 59.64 145.429 59.1249 143.716 58.0365C142.308 57.1408 141.618 55.7606 141.323 54.1596C140.884 51.7847 141.666 49.7271 143.061 47.8749C144.85 45.5051 147.291 44.1401 150.166 43.5235C151.878 43.1556 153.588 43.1709 155.25 43.7646C157.3 44.4953 158.757 45.8299 159.317 48.0068C159.429 48.4356 159.429 48.6995 159.328 49.075C158.906 49.212 154.613 49.2551 153.794 49.1283C153.768 49.1029 153.733 49.0775 153.72 49.0471C153.238 47.9688 152.063 47.5349 150.835 47.7429C149.318 47.9967 148.072 48.7045 147.177 49.9681C146.641 50.7216 146.449 51.5868 146.537 52.4977C146.634 53.4999 147.164 54.2408 148.055 54.6823C149.085 55.1922 150.171 55.2836 151.257 54.8599C151.805 54.6467 152.297 54.3448 152.436 53.6496C151.807 53.439 151.132 53.713 150.447 53.439C150.681 52.6931 151.008 52.0258 151.325 51.2671Z" fill="#EFE9DF"/>
<path d="M205.575 58.9188C205.072 60.4944 204.57 62.0675 204.057 63.6812C202.185 63.6964 200.381 63.704 198.468 63.704C198.557 63.3843 198.605 63.1687 198.673 62.9581C199.795 59.4669 200.916 55.9782 202.038 52.4895C202.444 51.2234 202.844 49.9523 203.258 48.6862C203.497 47.9555 203.656 47.8489 204.4 47.9707C205.684 48.1863 206.934 47.9631 208.195 47.7626C209.746 47.5165 211.314 47.4049 212.864 47.6992C214.44 47.9961 215.69 48.813 216.421 50.2999C216.957 51.3883 217.02 52.5352 216.736 53.6896C216.173 55.9909 214.843 57.7136 212.727 58.8072C211.798 59.2867 210.781 59.4263 209.758 59.4872C208.398 59.5709 207.056 59.4669 205.783 58.9239C205.75 58.9061 205.706 58.9188 205.575 58.9188ZM206.64 55.6636C206.775 55.7245 206.861 55.793 206.947 55.798C207.754 55.8412 208.566 55.935 209.368 55.8919C210.218 55.8462 211.004 55.5342 211.499 54.7831C212.006 54.0068 212.27 53.1441 212.181 52.2053C212.128 51.6446 211.892 51.1676 211.403 50.8504C210.466 50.2415 208.99 50.173 208.137 51.4441C207.987 51.6649 207.856 51.9085 207.769 52.1596C207.414 53.1771 207.074 54.2021 206.734 55.2272C206.693 55.3489 206.678 55.4834 206.64 55.6636Z" fill="#EFE9DF"/>
<path d="M78.2504 58.2406C77.4435 58.4182 73.0161 58.37 72.5391 58.1645C73.6529 54.4094 74.8327 50.667 76.0506 46.8662C76.7483 46.8536 77.4562 46.7648 78.1565 46.9449C78.9988 47.1631 79.8133 47.1453 80.6633 46.9068C82.1374 46.4907 83.6496 46.2878 85.1871 46.3918C85.9229 46.4425 86.6359 46.6049 87.3108 46.9195C89.2315 47.8101 89.947 49.6876 89.4877 51.5982C89.1376 53.0596 88.6479 54.4855 88.2166 55.9267C88.0466 56.5001 87.8741 57.0735 87.6889 57.6418C87.6203 57.855 87.5138 58.058 87.4402 58.2305C86.7146 58.4081 82.1653 58.3751 81.6908 58.1823C81.7416 57.9945 81.7873 57.7941 81.8482 57.5962C82.3987 55.8074 82.9518 54.0212 83.505 52.2325C83.609 51.8976 83.7206 51.5601 83.3933 51.1313C83.2715 51.0907 83.0432 50.9512 82.8123 50.9486C82.2744 50.9436 81.734 51.007 81.1935 51.0374C80.6785 51.0654 80.3918 51.3546 80.2548 51.8316C80.1482 52.202 80.029 52.5699 79.9173 52.9378C79.4302 54.5236 78.9456 56.1094 78.4559 57.6951C78.3975 57.8778 78.3214 58.0529 78.2504 58.2406Z" fill="#EFE9DF"/>
<path d="M186.956 47.9449H192.564C192.51 48.2114 192.487 48.4321 192.424 48.6401C191.95 50.1904 191.465 51.7381 190.985 53.2858C190.889 53.6004 190.777 53.91 190.714 54.2322C190.602 54.7802 190.866 55.1811 191.424 55.1913C192.059 55.204 192.696 55.1304 193.327 55.0517C193.721 55.001 193.88 54.6711 193.987 54.321C194.327 53.2148 194.669 52.1085 195.009 51.0023C195.258 50.1904 195.502 49.3759 195.753 48.5666C195.816 48.3661 195.903 48.1733 195.991 47.9475H201.426C201.654 48.1758 201.497 48.3991 201.434 48.6072C201.033 49.9392 200.629 51.2662 200.216 52.5931C199.602 54.5646 198.98 56.536 198.361 58.5049C198.298 58.7053 198.222 58.9032 198.133 59.1519C197.595 59.294 197.021 59.3269 196.491 59.1874C195.311 58.8829 194.187 58.9514 193.02 59.294C192.196 59.535 191.313 59.6035 190.448 59.6847C189.359 59.7862 188.283 59.6619 187.263 59.2381C185.279 58.4135 184.467 56.7136 184.888 54.628C185.137 53.4025 185.574 52.2151 185.931 51.015C186.172 50.2005 186.421 49.3886 186.677 48.5793C186.748 48.3661 186.86 48.1657 186.956 47.9449Z" fill="#EFE9DF"/>
<path d="M37.6026 42.4681C37.9071 42.4427 38.1709 42.4021 38.4373 42.4021C39.9039 42.3894 41.3729 42.3793 42.8394 42.3894C43.1439 42.392 43.5169 42.3031 43.73 42.7319C43.6539 42.9755 43.5727 43.2521 43.4814 43.521C42.5883 46.1496 41.6926 48.7782 40.797 51.4067C40.7538 51.5336 40.7183 51.6655 40.6752 51.7924C40.4925 52.3125 40.6498 52.7312 41.0913 53.127H41.8093C43.5093 53.127 45.2092 53.1244 46.9092 53.1346C47.1857 53.1371 47.4648 53.2031 47.7084 53.2361C47.9367 54.1114 46.6351 57.7523 45.9069 58.3765C45.8156 58.3866 45.7014 58.4069 45.5873 58.4069C42.7684 58.4095 39.947 58.4095 37.1281 58.4069C36.4 58.4069 35.7073 58.2471 35.0933 57.8411C33.8348 57.0115 33.4847 55.7606 33.6039 54.3601C33.6597 53.7181 33.8602 53.0762 34.0708 52.4597C35.1263 49.3769 36.2046 46.3018 37.2804 43.2267C37.3666 42.9806 37.4859 42.7421 37.6026 42.4681Z" fill="#EFE9DF"/>
<path d="M62.8595 58.5614C61.8447 58.5868 60.6623 58.3584 59.5789 57.7317C57.4299 56.486 56.6712 54.2608 57.61 51.9621C58.2215 50.4651 59.2795 49.3386 60.5811 48.4176C62.1415 47.3164 63.8694 46.6187 65.7647 46.4182C67.254 46.2609 68.7408 46.3447 70.1287 47.0094C71.1461 47.4966 71.9885 48.1816 72.4934 49.2193C73.1455 50.5565 72.9856 51.886 72.3894 53.1825C71.6967 54.6845 70.5372 55.7806 69.1874 56.6864C67.5306 57.7952 65.2902 58.5995 62.8595 58.5614ZM64.4199 54.5323C64.8335 54.441 65.2598 54.3928 65.6556 54.2507C66.3736 53.9919 67.0206 53.6037 67.4189 52.9161C67.9797 51.9494 67.6295 51.0411 66.5994 50.6199C65.2192 50.0566 63.3974 51.0056 62.8849 51.8302C62.616 52.2666 62.4409 52.7283 62.5931 53.2561C62.8164 54.0325 63.4659 54.4765 64.4199 54.5323Z" fill="#EFE9DF"/>
<path d="M174.426 59.5079C173.241 59.5307 172.112 59.3201 171.069 58.7493C168.73 57.4654 167.971 55.0728 169.128 52.6675C169.94 50.9803 171.27 49.8005 172.863 48.8998C174.632 47.9001 176.532 47.3825 178.575 47.4738C179.686 47.5246 180.749 47.7758 181.728 48.334C183.799 49.5138 184.545 51.5385 183.723 53.7738C183.342 54.8115 182.698 55.6792 181.901 56.4252C179.803 58.3991 177.306 59.4242 174.426 59.5079ZM175.751 55.4636C176.88 55.3925 177.872 55.017 178.549 54.0681C179.285 53.038 178.856 51.9216 177.626 51.6044C176.428 51.2949 175.413 51.7161 174.525 52.4722C173.891 53.0126 173.688 53.8093 173.959 54.4563C174.282 55.2225 174.929 55.4483 175.695 55.461C175.713 55.4636 175.733 55.4636 175.751 55.4636Z" fill="#EFE9DF"/>
<path d="M157.86 59.259C159.06 55.405 160.22 51.6905 161.382 47.9607C161.986 47.9607 162.567 47.9049 163.13 47.9734C164.006 48.0775 164.861 47.9658 165.723 47.872C166.545 47.7831 167.375 47.6994 168.2 47.707C168.687 47.7121 169.192 47.8542 169.653 48.0242C170.227 48.2348 170.458 48.5443 170.651 49.1532C169.773 50.0667 168.869 51.0105 167.964 51.9518C167.786 51.9417 167.634 51.9366 167.482 51.9264C166.484 51.8605 165.607 52.4593 165.325 53.4031C164.815 55.1208 164.307 56.841 163.797 58.5613C163.584 59.2819 163.47 59.3681 162.747 59.3681C161.357 59.3681 159.966 59.3707 158.576 59.3605C158.365 59.3605 158.15 59.3022 157.86 59.259Z" fill="#EFE9DF"/>
<path d="M51.9209 46.8903H57.655C57.6271 47.0983 57.6271 47.2658 57.5815 47.4205C56.5158 50.8864 55.4426 54.3522 54.3693 57.8156C54.3237 57.9602 54.2552 58.0972 54.2069 58.2215C53.6741 58.3915 48.96 58.389 48.417 58.2012C49.574 54.4207 50.7386 50.6428 51.9209 46.8903Z" fill="#EFE9DF"/>
<path d="M56.3576 41.056C57.0123 41.0306 57.6186 41.1981 58.1768 41.5254C59.0091 42.0125 59.2323 42.7077 58.8467 43.5856C58.4382 44.5142 57.6491 45.0293 56.7585 45.3896C55.868 45.7499 54.9266 45.8437 53.9803 45.6382C53.6834 45.5748 53.3815 45.4657 53.1252 45.3058C52.1357 44.6969 51.9961 43.4156 52.8081 42.5809C53.8635 41.5 54.8759 41.0636 56.3576 41.056Z" fill="#EFE9DF"/>
<path d="M112.322 71.0241C115.088 69.7917 116.308 67.4131 117.245 64.813C117.326 64.5877 117.295 64.4486 117.052 64.3625C116.872 64.2984 116.704 64.1977 116.49 64.0934C116.196 64.6592 115.927 65.2067 115.631 65.7377C114.714 67.3729 113.622 68.867 112.044 69.94C111.114 70.5718 110.105 70.9398 108.951 70.6835C108.163 70.5077 107.614 70.0353 107.184 69.2973C110.985 68.7553 113.5 66.4335 115.653 63.5257C115.389 63.284 115.145 63.0624 114.822 62.7695C114.568 63.0551 114.336 63.3316 114.088 63.5916C112.633 65.1023 111.043 66.439 109.093 67.2868C107.563 67.9533 105.996 68.2261 104.344 67.7446C103.161 67.4003 102.454 66.6532 102.24 65.4465C102.218 65.3275 102.22 65.203 102.209 65.0767C106.705 65.9373 110.579 64.4907 114.25 62.0773C114.036 61.7166 113.854 61.409 113.653 61.0702C112.99 61.3449 112.352 61.625 111.704 61.8759C110.07 62.5058 108.426 63.1284 106.677 63.3481C104.68 63.599 102.678 63.7161 100.754 62.9068C99.7932 62.5021 98.9573 61.9327 98.3792 61.0446C97.7606 60.0924 97.6832 59.0761 98.0404 57.994C102.82 60.7901 107.9 61.0537 113.193 59.9221C113.14 59.6346 113.112 59.3563 113.029 59.0945C113 59.0029 112.838 58.9022 112.733 58.8967C112.469 58.8821 112.202 58.9278 111.935 58.9352C108.491 59.0414 105.101 58.7392 101.848 57.5069C100.242 56.899 98.8063 56.0164 97.6096 54.7804C96.2858 53.4126 95.9231 51.6181 96.6632 50.0873C96.8345 49.7357 97.1051 49.4318 97.3426 49.0838C97.4512 49.1791 97.501 49.2084 97.5304 49.2523C98.8303 51.1255 100.577 52.5025 102.485 53.7092C105.598 55.6795 108.99 56.9393 112.578 57.723C112.659 57.7413 112.744 57.7486 112.828 57.7541C112.852 57.7559 112.878 57.7321 112.933 57.7065C112.961 57.4501 113.014 57.1755 113.003 56.9045C113 56.8147 112.851 56.6884 112.742 56.6481C110.378 55.7893 108.104 54.7291 105.965 53.4217C102.837 51.5101 100.101 49.1571 98.2466 45.938C97.3021 44.2974 96.8676 42.5542 97.4991 40.6828C97.9391 39.3809 98.7713 38.5111 100.211 38.3335C101.846 46.1486 106.668 51.5613 113.278 55.7197C113.412 55.4158 113.559 55.1851 113.607 54.9342C113.631 54.8115 113.499 54.6174 113.384 54.5185C112.326 53.6067 111.208 52.757 110.196 51.7957C106.233 48.0383 103.61 43.499 102.42 38.1833C101.91 35.9091 101.938 33.6092 102.713 31.3735C103.12 30.1997 103.788 29.2238 105.04 28.7916C105.97 28.4712 106.885 28.5957 107.795 28.8814C105.256 39.6372 109.699 49.7376 114.568 53.5206C114.844 53.224 115.099 52.8852 115.417 52.6215C117.475 50.9149 119.816 50.4315 122.343 51.2885C124.943 52.1692 126.527 54.0406 127.055 56.714C127.85 60.7516 124.788 64.6848 120.67 64.9906C120.454 65.0071 120.25 65.0162 120.338 65.3129C120.416 65.5692 120.193 65.9904 120.782 65.9592C124.078 65.7908 126.994 63.4635 127.935 60.2188C129.338 55.3828 126.223 50.5542 121.215 49.8639C118.766 49.527 116.581 50.199 114.686 51.7865C114.601 51.858 114.515 51.9312 114.381 52.0447C111.497 48.7561 109.789 44.9584 109.205 40.6059C109.665 40.4887 110.133 40.3697 110.647 40.2378C110.418 39.943 110.214 39.705 110.039 39.4468C109.632 38.8498 109.446 38.1925 109.535 37.4655C109.57 37.1707 109.686 37.048 110.021 37.0499C110.521 37.0535 111.022 36.9748 111.523 36.9217C112.16 36.8558 112.795 36.7807 113.386 36.7148C113.361 36.235 113.287 35.7425 113.318 35.2554C113.361 34.6054 113.443 34.6255 114.101 34.6438C114.837 34.664 115.577 34.5816 116.314 34.5211C117.142 34.4534 117.973 34.1732 118.669 34.5761C118.884 34.111 119.053 33.6715 119.287 33.2723C119.433 33.0233 119.661 33.0178 119.972 33.146C120.848 33.5104 121.751 33.8198 122.655 34.111C123.266 34.3087 123.837 34.5468 124.277 35.1071C124.363 34.9569 124.429 34.8434 124.492 34.7299C124.709 34.3307 125.048 34.0908 125.499 34.0817C125.661 34.078 125.919 34.1824 125.976 34.3069C126.475 35.4056 127.419 36.0245 128.408 36.5958C128.977 36.9254 129.57 37.2128 130.139 37.5424C130.73 37.883 130.82 38.0845 130.603 38.7034C130.502 38.9908 130.612 39.0952 130.822 39.2307C131.722 39.8112 132.722 39.9412 133.762 39.9119C134.429 39.8917 134.699 40.3166 134.421 40.9117C134.366 41.0289 134.318 41.1882 134.353 41.2999C134.639 42.1916 133.917 43.6565 133.04 44.1948C133.007 44.1014 132.971 44.0172 132.947 43.9293C132.733 43.1236 132.183 42.7776 131.352 42.9277C130.295 43.1181 129.542 43.9183 129.364 45.0371C129.343 45.1616 129.323 45.2862 129.316 45.4107C129.283 45.9838 129.314 46.524 129.9 46.8646C130.476 47.1997 131.054 47.359 131.687 47.0403C131.846 46.9598 132.011 46.8939 132.173 46.8224C132.219 46.8444 132.265 46.8682 132.311 46.8902C132.151 47.4707 132.043 48.0731 131.814 48.6261C131.608 49.126 130.752 49.3988 130.159 49.2486C129.914 49.1864 129.671 49.1223 129.428 49.0582C129.143 48.9813 129.008 49.1278 128.949 49.3823C128.636 50.7465 129.434 52.3981 130.341 52.8687C130.577 52.9896 130.792 53.1525 131.002 53.3137C131.448 53.6543 131.463 54.0022 131.063 54.3959C131.004 54.4545 130.938 54.5076 130.868 54.5552C130.235 54.9836 130.098 55.489 130.481 56.1574C130.638 56.432 130.835 56.703 131.07 56.9118C131.385 57.1938 131.452 57.5325 131.367 57.8933C131.282 58.254 130.951 58.2741 130.632 58.3291C130.498 58.3529 130.354 58.5579 130.294 58.7118C129.934 59.6163 129.677 60.5703 129.242 61.4364C127.948 64.011 125.739 65.4246 122.988 66.0728C122.283 66.2394 121.555 66.3255 120.836 66.4207C120.559 66.4573 120.467 66.5159 120.495 66.8308C120.565 67.62 120.651 68.4202 120.583 69.2039C120.454 70.6853 118.827 71.5954 117.534 71.0057C117.862 70.4619 118.31 69.9529 118.49 69.3614C118.766 68.4514 118.873 67.4882 119.022 66.5434C119.083 66.1607 119.046 65.7633 119.086 65.3751C119.12 65.0583 119.035 64.899 118.691 64.899C118.514 64.899 118.337 64.8441 118.146 64.8093C117.98 65.7011 117.84 66.5635 117.654 67.4168C117.422 68.4733 117.05 69.4859 116.395 70.3575C115.673 71.3152 114.758 71.914 113.473 71.6924C113.024 71.6118 112.624 71.4489 112.322 71.0241ZM123.756 37.6578C123.754 37.0151 122.844 36.4273 122.226 36.5555C121.495 36.7075 120.966 37.4326 121.123 38.0881C121.254 38.6283 121.719 39.0128 122.146 38.8938C122.016 38.4195 121.795 37.8958 122.323 37.5296C122.811 37.1909 123.277 37.6139 123.756 37.6578ZM128.511 39.3095C128.868 39.7489 129.165 40.1151 129.507 40.5381C129.793 39.9925 130.043 39.5182 130.308 39.0128C129.691 39.1154 129.165 39.2014 128.511 39.3095Z" fill="#EFE9DF"/>
</svg>
