<svg width="250" height="100" viewBox="0 0 250 100" fill="none" xmlns="http://www.w3.org/2000/svg">
<path d="M120.982 34.2653V66.1326H127.81V49.6225L147.895 66.1326V34.2653H141.066V50.198L120.982 34.2653Z" fill="#EFE9DF"/>
<path d="M168.596 33.8727L153.326 66.1296H161.093L162.909 61.9235H168.598H174.288L176.104 66.1296H183.871L168.596 33.8727ZM168.596 56.0286H165.785L168.596 49.6037L171.408 56.0286H168.596Z" fill="#EFE9DF"/>
<path d="M78.2313 33.8737C73.6762 33.8737 66.1299 33.8737 66.1299 33.8737V66.1306H73.0319V55.4501H77.8623C77.8623 55.4501 88.3998 55.3097 88.3998 44.825C88.3998 38.2538 82.7864 33.8737 78.2313 33.8737ZM78.6608 48.8512H73.0826V44.6925V40.5339H78.6608C78.6608 40.5339 82.5443 40.5794 82.5443 44.6925C82.5443 48.8057 78.6608 48.8512 78.6608 48.8512Z" fill="#EFE9DF"/>
<path d="M100.631 42.2205L96.6982 46.2051V62.1398L100.631 66.1225H108.497L112.431 62.1398V46.2051L108.497 42.2205L104.565 46.2051L100.631 42.2205Z" fill="#EFE9DF"/>
<path d="M100.631 34.2556L96.6982 38.2383L104.565 46.2056L112.431 38.2383L108.497 34.2556L104.565 38.2383L100.631 34.2556Z" fill="#EFE9DF"/>
<path d="M104.566 62.1414L108.498 66.124H100.632L104.566 62.1414Z" fill="#EFE9DF"/>
<path d="M108.496 34.2498L112.43 38.2324L108.496 42.2151V34.2498Z" fill="#EFE9DF"/>
<path d="M104.565 38.2302L108.498 42.2129L104.565 46.1976V38.2302Z" fill="#EFE9DF"/>
<path d="M108.496 42.2136L112.43 46.1983L108.496 50.181V42.2136Z" fill="#EFE9DF"/>
<path d="M108.496 50.1863L112.43 54.1709L108.496 58.1536V50.1863Z" fill="#EFE9DF"/>
<path d="M108.496 58.1511L112.43 62.1358L108.496 66.1185V58.1511Z" fill="#EFE9DF"/>
<path d="M104.565 46.2009L108.498 50.1836L104.565 54.1683V46.2009Z" fill="#EFE9DF"/>
<path d="M104.565 54.1687L108.498 58.1514L104.565 62.136V54.1687Z" fill="#EFE9DF"/>
</svg>
