<svg width="250" height="100" viewBox="0 0 250 100" fill="none" xmlns="http://www.w3.org/2000/svg">
<g clip-path="url(#clip0_1251_4252)">
<path d="M204.292 53.8282C183.183 59.0201 145.668 57.592 125.353 53.0667C99.3096 47.2666 66.0145 48.5926 45.71 53.8634C59.4184 52.8065 84.0709 51.8967 112.028 61.2622C135.324 69.31 174.719 75.6242 204.292 70.0579V53.8282Z" fill="#EFE9DF"/>
<path d="M122.98 46.2085H119.17V32.5146H122.98V46.2085Z" fill="#EFE9DF"/>
<path d="M51.8665 38.5699H49.9418L49.9412 34.9524H52.0683C53.3793 34.9524 53.8411 35.7969 53.8411 36.6913C53.8411 37.6256 53.2313 38.5699 51.8665 38.5699ZM51.8666 32.5452H46.21V46.2424H49.942V41.025H52.8267C55.8774 41.025 57.4246 39.578 57.4246 36.7232C57.4246 33.8339 55.9217 32.5452 51.8666 32.5452Z" fill="#EFE9DF"/>
<path d="M66.2028 43.9678C64.2057 43.9678 63.0148 42.2708 63.0148 39.4267C63.0148 34.9839 65.4338 34.6355 66.1756 34.6355C67.273 34.6355 69.1134 35.2559 69.1134 39.4027C69.1134 42.2595 68.0253 43.9678 66.2028 43.9678ZM66.305 32.2834C62.0508 32.2834 59.4082 35.0006 59.4082 39.3755C59.4082 43.8488 61.8478 46.4163 66.0999 46.4163C70.3077 46.4163 72.8196 43.7351 72.8196 39.2504C72.8196 34.7579 70.5061 32.2834 66.305 32.2834Z" fill="#EFE9DF"/>
<path d="M75.2109 39.5806C75.2109 35.0002 77.7679 32.2638 82.0526 32.2638C85.4184 32.2638 87.5329 33.9382 87.6636 36.6387H84.0132C83.7524 35.4584 82.9874 34.812 81.7521 34.812C80.3157 34.812 78.8667 36.1858 78.8667 39.2507C78.8667 43.355 80.6434 43.9681 81.7017 43.9681C83.1255 43.9681 83.9269 43.2659 84.1651 41.8388H87.8646C87.7333 44.7109 85.4768 46.491 81.8801 46.491C78.8374 46.491 75.2109 45.2921 75.2109 39.5806Z" fill="#EFE9DF"/>
<path d="M94.142 41.0066L96.2565 35.0604L98.3265 41.0066H94.142ZM98.428 32.5022H94.343C94.2183 32.8094 89.105 45.5344 88.8369 46.1988H92.273C92.3798 45.8975 93.2642 43.4131 93.2642 43.4131H99.118C99.118 43.4131 99.9819 45.8949 100.089 46.1988H104.024C103.752 45.5318 98.5514 32.8074 98.428 32.5022Z" fill="#EFE9DF"/>
<path d="M111.465 38.3188H109.213V34.9547L111.541 34.9607C113.023 34.9607 113.442 35.7095 113.442 36.5161C113.442 37.5062 113.127 38.3188 111.465 38.3188ZM116.67 42.9963C116.67 39.5716 114.303 39.2698 114.303 39.2698C114.303 39.2698 117.032 39.194 116.975 35.8258C116.934 33.5443 116.049 32.4584 110.987 32.5149H105.531V46.2088H109.213V40.8631H111.438C112.843 40.8631 113.037 42.1578 113.037 43.5522C113.037 44.539 113.389 45.7786 113.777 46.2088H117.466C117.066 45.3357 116.67 44.2411 116.67 42.9963Z" fill="#EFE9DF"/>
<path d="M139.322 42.3815C139.322 41.0509 137.667 40.6606 136.065 40.2835C133.819 39.7562 131.74 38.9044 131.74 36.2804C131.74 33.9563 133.987 32.2034 136.966 32.2034C139.177 32.2034 140.759 32.6662 141.666 33.5819C142.547 34.4723 142.604 35.6001 142.604 36.2864V36.2995H139.015C138.989 35.6305 138.782 34.4741 137.144 34.4741C136.131 34.4741 135.397 35.074 135.397 35.8985C135.397 37.1288 136.526 37.424 139 38.0724C141.15 38.6316 143.08 39.3578 143.08 42.0549C143.08 44.7268 140.88 46.4558 137.473 46.4558C133.507 46.4558 131.538 44.9223 131.432 41.8029H134.987C135.08 43.2286 135.931 44.1077 137.271 44.1077C138.48 44.1077 139.322 43.397 139.322 42.3815Z" fill="#EFE9DF"/>
<path d="M152.288 32.4084L149.789 42.5984L147.305 32.427H143.512L147.578 46.1236H151.558L154.487 35.4564H154.488L157.42 46.1236H161.396L165.463 32.427H161.671L159.186 42.5984L156.689 32.4084H152.288Z" fill="#EFE9DF"/>
<path d="M176.645 32.4446V34.8186H170.809V37.7624H176.192V40.2135H170.809V43.4905H176.822V46.1392H167.148V32.4446H176.645Z" fill="#EFE9DF"/>
<path d="M183.933 41.074L186.046 35.1311L188.116 41.074H183.933ZM188.241 32.4739H184.157C184.033 32.7818 178.919 45.5048 178.651 46.1704H182.087C182.194 45.8692 183.077 43.3848 183.077 43.3848H188.933C188.933 43.3848 189.797 45.8652 189.904 46.1704H193.839C193.565 45.5041 188.367 32.7798 188.241 32.4739Z" fill="#EFE9DF"/>
<path d="M204.289 32.4446V35.0446H200.042V46.1392H196.434V35.0446H192.111V32.4446H204.289Z" fill="#EFE9DF"/>
</g>
<defs>
<clipPath id="clip0_1251_4252">
<rect width="158.582" height="44.3491" fill="white" transform="translate(45.709 27.8254)"/>
</clipPath>
</defs>
</svg>
