<svg width="36" height="36" viewBox="0 0 36 36" fill="none" xmlns="http://www.w3.org/2000/svg">
<path d="M6 7.5C6 4.18629 8.68629 1.5 12 1.5V1.5V25.5V25.5C8.68629 25.5 6 22.8137 6 19.5V7.5Z" fill="#1F3F31"/>
<path d="M24 10.5V10.5C27.3137 10.5 30 13.1863 30 16.5V28.5C30 31.8137 27.3137 34.5 24 34.5V34.5V10.5Z" fill="#1F3F31"/>
<path d="M15 10.5V10.5C18.3137 10.5 21 13.1863 21 16.5V25.5V25.5C17.6863 25.5 15 22.8137 15 19.5V10.5Z" fill="#1F3F31"/>
<path d="M15 10.5C18.3137 10.5 21 13.1863 21 16.5V16.5L6 16.5L6 10.5L15 10.5Z" fill="#1F3F31"/>
<path d="M30 1.5V1.5C30 4.81371 27.3137 7.5 24 7.5L15 7.5L15 1.5L30 1.5Z" fill="#1F3F31"/>
<path d="M30 19.5L30 25.5L21 25.5C17.6863 25.5 15 22.8137 15 19.5V19.5L30 19.5Z" fill="#1F3F31"/>
<path d="M24 28.5L24 34.5L6 34.5V34.5C6 31.1863 8.68629 28.5 12 28.5L24 28.5Z" fill="#1F3F31"/>
</svg>
