<svg width="24" height="24" viewBox="0 0 24 24" fill="none" xmlns="http://www.w3.org/2000/svg">
<path fill-rule="evenodd" clip-rule="evenodd" d="M12 4C7.58172 4 4 7.58172 4 12C4 16.4183 7.58172 20 12 20C16.4183 20 20 16.4183 20 12C20 7.58172 16.4183 4 12 4ZM2 12C2 6.47715 6.47715 2 12 2C17.5228 2 22 6.47715 22 12C22 17.5228 17.5228 22 12 22C6.47715 22 2 17.5228 2 12Z" fill="#EFE9DF"/>
<path fill-rule="evenodd" clip-rule="evenodd" d="M12 6C12.5523 6 13 6.44772 13 7L13 13C13 13.5523 12.5523 14 12 14C11.4477 14 11 13.5523 11 13L11 7C11 6.44772 11.4477 6 12 6Z" fill="#EFE9DF"/>
<path fill-rule="evenodd" clip-rule="evenodd" d="M12 15.5C12.5523 15.5 13 15.9477 13 16.5V16.51C13 17.0623 12.5523 17.51 12 17.51C11.4477 17.51 11 17.0623 11 16.51V16.5C11 15.9477 11.4477 15.5 12 15.5Z" fill="#EFE9DF"/>
</svg>
