<svg width="24" height="24" viewBox="0 0 24 24" fill="none" xmlns="http://www.w3.org/2000/svg">
<path d="M12 22.0001C17.5228 22.0001 22 17.523 22 12.0001C22 6.47727 17.5228 2.00012 12 2.00012C6.47715 2.00012 2 6.47727 2 12.0001C2 14.2745 2.75927 16.3715 4.03817 18.0516C4.51276 18.675 4.75964 19.461 4.59521 20.2271L4 23.0001L7.05082 21.6028C7.65476 21.3262 8.34359 21.3344 8.97685 21.535C9.93061 21.8371 10.9463 22.0001 12 22.0001Z" stroke="#1F3F31" stroke-width="2" stroke-linecap="round" stroke-linejoin="round"/>
<path d="M9.89911 14.5984C8.16286 12.8622 7.47676 10.8771 7.19938 9.52393C7.03888 8.74091 7.34832 7.95258 7.91351 7.38739C8.44814 6.85276 9.31495 6.85276 9.84959 7.38739L10.907 8.44477C11.328 8.8658 11.328 9.54842 10.907 9.96945C10.5026 10.3738 10.2564 10.9436 10.5187 11.4518C10.723 11.8475 11.0789 12.3337 11.6693 12.9241C12.2597 13.5145 12.7459 13.8705 13.1417 14.0747C13.6499 14.337 14.2196 14.0908 14.624 13.6865C15.045 13.2654 15.7276 13.2654 16.1487 13.6865L16.6315 14.1693C17.2268 14.7646 17.2268 15.7299 16.6315 16.3252C16.1271 16.8296 15.4574 17.1587 14.7498 17.0689C13.5163 16.9123 11.6383 16.3376 9.89911 14.5984Z" stroke="#1F3F31" stroke-width="2" stroke-linecap="round"/>
</svg>
